<svg xmlns="http://www.w3.org/2000/svg" viewBox="0 0 38.4 38.4"><defs><style>.cls-1{fill:#c19425;}.cls-2{fill:#fff;}</style></defs><title>24h-icon</title><g id="Layer_2" data-name="Layer 2"><g id="Layer_3" data-name="Layer 3"><circle class="cls-1" cx="19.2" cy="19.2" r="19.2"/><path class="cls-2" d="M18.17,30.31a.93.93,0,0,1-.37.59l-.45.32-.06,0a.93.93,0,0,1-.81.14l-.14.09h0l-.1.06a3.28,3.28,0,0,1-.89.32,3,3,0,0,1-3-1.19L6.67,22.78a3,3,0,0,1,.48-4l.12-.1a.93.93,0,0,1,.38-.88l.5-.36.18-.1a.93.93,0,0,1,1.12.31L11.15,20a.93.93,0,0,1-.21,1.3l-.5.36a.93.93,0,0,1-.78.14L14.14,28a.93.93,0,0,1,.38-.62L15,27a.93.93,0,0,1,1.3.21L18,29.6A.93.93,0,0,1,18.17,30.31Z"/><path class="cls-2" d="M16.44,15.62a3.46,3.46,0,0,0-2,.79l-.63-1.6a5.28,5.28,0,0,1,3.13-1c2.16,0,3.35,1.26,3.35,3s-1.16,2.88-2.54,4.11l-.88.73v0h3.6v1.83H13.65V22.18l1.23-1.12C17,19.21,18,18.13,18,17,18,16.24,17.54,15.62,16.44,15.62Z"/><path class="cls-2" d="M30.79,27.35l-2.27.91a12.72,12.72,0,0,1-9,3.7q-.45,0-.89,0l.75-1h.14a11.61,11.61,0,0,0,8.11-3.27l.46-2.48,1,.81A11.69,11.69,0,0,0,19.53,7.51a11.81,11.81,0,0,0-2.23.21l-1.95,2-.41-1.32a11.74,11.74,0,0,0-6.8,8.11L7,17a12.78,12.78,0,0,1,7.66-9.57l-.31-1,2,.4A12.76,12.76,0,0,1,29.91,26.62Z"/><polygon class="cls-2" points="29 19.59 29 21.26 27.86 21.26 27.86 23.54 25.74 23.54 25.74 21.26 21.52 21.26 21.52 19.81 25.13 13.99 27.86 13.99 27.86 19.59 29 19.59"/><path class="cls-1" d="M24.88,17.47,23.6,19.56v0h2.14V17.47c0-.57,0-1.16.07-1.78h-.06C25.45,16.31,25.2,16.87,24.88,17.47Z"/></g></g></svg>