<svg xmlns="http://www.w3.org/2000/svg" viewBox="0 0 34.62 34.62"><defs><style>.cls-1{fill:#adbc37;}</style></defs><title>Asset 6</title><g id="Layer_2" data-name="Layer 2"><g id="Layer_3" data-name="Layer 3"><path class="cls-1" d="M17.31,8.42a8.89,8.89,0,1,0,8.89,8.89A8.9,8.9,0,0,0,17.31,8.42Zm-.9,2.52a1.54,1.54,0,0,1,1-.29,1.13,1.13,0,0,1,.85.37,1.39,1.39,0,0,1,.35,1A1.27,1.27,0,0,1,18,13.12a2,2,0,0,1-1.1.41.68.68,0,0,1-.64-.46A2.49,2.49,0,0,1,16,12,1.31,1.31,0,0,1,16.41,10.94ZM18.71,23.6a1.82,1.82,0,0,1-1.13.38,1,1,0,0,1-.85-.45,1.74,1.74,0,0,1-.33-1.05v-6q0-.38-.28-.38a2.37,2.37,0,0,0-1.2.69,2.74,2.74,0,0,1,.83-1.06,2.12,2.12,0,0,1,1.38-.67.91.91,0,0,1,.88.49,2.48,2.48,0,0,1,.25,1.16v5.71q.08.57.43.57a1,1,0,0,0,.57-.26l.43-.35A4.13,4.13,0,0,1,18.71,23.6Z"/><path class="cls-1" d="M17.31,0A17.31,17.31,0,1,0,34.62,17.31,17.31,17.31,0,0,0,17.31,0Zm0,28.14A10.83,10.83,0,1,1,28.14,17.31,10.83,10.83,0,0,1,17.31,28.14Z"/></g></g></svg>