<svg xmlns="http://www.w3.org/2000/svg" viewBox="0 0 34.62 34.62"><defs><style>.cls-1{fill:#adbc37;}</style></defs><title>Asset 5</title><g id="Layer_2" data-name="Layer 2"><g id="Layer_3" data-name="Layer 3"><path class="cls-1" d="M12.87,10.52a3.74,3.74,0,1,0,3.74,3.74A3.75,3.75,0,0,0,12.87,10.52Zm0,6.91A3.17,3.17,0,1,1,16,14.27,3.17,3.17,0,0,1,12.87,17.43Z"/><path class="cls-1" d="M14.39,12.62l-1.53,1.53-1.52-1.53a.29.29,0,0,0-.41.41l1.73,1.73a.29.29,0,0,0,.41,0h0L14.8,13a.29.29,0,0,0-.41-.41Z"/><path class="cls-1" d="M17.31,0A17.31,17.31,0,1,0,34.62,17.31,17.31,17.31,0,0,0,17.31,0ZM3.5,9.29H26.91V11.1H22.38v9H3.5Zm.42,13.2H3.54v-2h2a2.57,2.57,0,0,0-1.67,2Zm2.54,2.84a2.42,2.42,0,0,1,0-4.85h0a2.42,2.42,0,0,1,0,4.85Zm19.14,0A2.42,2.42,0,1,1,28,22.9,2.42,2.42,0,0,1,25.59,25.33Zm5-4.09.51,0c0,.39,0,.78,0,1.17H28.34a2.81,2.81,0,0,0-3-2.21,3,3,0,0,0-2.51,2.28H9v0a2.56,2.56,0,0,0-1.67-2H22.8c0-2.36,0-4.72,0-7.09h0V11.61h0c1.44,0,2.87,0,4.32,0a5,5,0,0,0,.16,1.58c.2.81.53,1.6.73,2.42.19.48.18,1.16.68,1.43l.09,0,.74.35,1.07.49C30.63,19,30.6,20.13,30.61,21.23Z"/><path class="cls-1" d="M7,22.49a.72.72,0,0,0-1.19,0,.73.73,0,0,0-.12.28.78.78,0,0,0,0,.13.72.72,0,0,0,1.45,0,.74.74,0,0,0,0-.13A.72.72,0,0,0,7,22.49Z"/><path class="cls-1" d="M25.59,22.18a.72.72,0,0,0-.71.59.73.73,0,0,0,0,.13.72.72,0,1,0,.72-.72Z"/><path class="cls-1" d="M28.6,21.32c.63,0,1.26,0,1.89,0,0-.37,0-.74,0-1.11q-.94,0-1.88,0C28.59,20.58,28.59,20.94,28.6,21.32Z"/><path class="cls-1" d="M24.72,13.66c0,1.08,0,2.15,0,3.23,1,0,2.06,0,3.1,0-.28-1.08-.63-2.13-.91-3.2C26.17,13.65,25.44,13.66,24.72,13.66Z"/></g></g></svg>