<svg xmlns="http://www.w3.org/2000/svg" viewBox="0 0 34.62 34.62"><defs><style>.cls-1{fill:#adbc37;}</style></defs><title>Asset 7</title><g id="Layer_2" data-name="Layer 2"><g id="Layer_3" data-name="Layer 3"><path class="cls-1" d="M17.31,0A17.31,17.31,0,1,0,34.62,17.31,17.31,17.31,0,0,0,17.31,0Zm7.61,13.29-.76.28a.74.74,0,0,1-.32,0c0,.14,0,.28-.06.42a.73.73,0,0,1,.3.13l.67.49c.39.28.32.55-.16.59l-.81.07a.72.72,0,0,1-.35,0c-.05.13-.11.26-.17.39a.72.72,0,0,1,.28.22l.52.65c.3.38.16.61-.31.53l-.8-.14a.72.72,0,0,1-.34-.15c-.09.12-.17.23-.26.34a.7.7,0,0,1,.23.29l.33.76c.2.44,0,.63-.44.43l-.73-.34a.7.7,0,0,1-.29-.24l-.13.1h0l2.34,10.44c.13.47-.12.66-.54.43l-1.52-.81a1.33,1.33,0,0,0-1.42.17L19,29.42c-.36.32-.66.2-.68-.29l-.37-9.32h0l-.3.77c-.17.45-.45.45-.61,0l-.18-.49-.36,9c0,.48-.32.61-.68.29l-1.2-1.09a1.33,1.33,0,0,0-1.42-.17L11.65,29c-.38.2-.61.07-.57-.28h0a1,1,0,0,1,0-.15v0L13.2,18a.68.68,0,0,1-.3.25l-.76.34c-.44.19-.63,0-.43-.44l.34-.73a.69.69,0,0,1,.25-.3c-.09-.11-.18-.23-.26-.34a.7.7,0,0,1-.35.16l-.82.13c-.48.07-.61-.17-.3-.53l.52-.62a.7.7,0,0,1,.31-.22c-.06-.13-.12-.26-.17-.4a.71.71,0,0,1-.37.05L10,15.25c-.48-.05-.55-.32-.15-.59l.66-.46a.72.72,0,0,1,.34-.13c0-.14,0-.28-.06-.43a.71.71,0,0,1-.34,0l-.77-.3c-.45-.17-.45-.45,0-.61l.76-.28a.73.73,0,0,1,.34,0c0-.14,0-.28.05-.43a.73.73,0,0,1-.31-.14l-.67-.49c-.39-.28-.32-.55.17-.59l.81-.07a.75.75,0,0,1,.32,0c0-.13.1-.27.15-.4a.74.74,0,0,1-.24-.2l-.52-.65c-.3-.38-.16-.61.31-.53l.8.14a.75.75,0,0,1,.28.11l.26-.35A.76.76,0,0,1,12,8.56l-.34-.76c-.2-.44,0-.63.44-.43l.73.34a.77.77,0,0,1,.23.16l.35-.27a.74.74,0,0,1-.09-.26l-.13-.82c-.07-.48.16-.61.53-.3l.62.52a.78.78,0,0,1,.17.21L15,6.79a.76.76,0,0,1,0-.27L15,5.7c.05-.48.32-.55.59-.15l.46.66a.78.78,0,0,1,.11.24l.44-.07a.78.78,0,0,1,.05-.25l.3-.77c.17-.45.45-.45.61,0l.28.76a.75.75,0,0,1,0,.25l.44.06a.79.79,0,0,1,.11-.23L19,5.55c.28-.39.55-.32.59.17l.07.81a.77.77,0,0,1,0,.26l.41.17a.78.78,0,0,1,.17-.19l.65-.52c.38-.3.61-.16.53.31l-.14.8a.78.78,0,0,1-.09.25l.36.27a.76.76,0,0,1,.22-.14l.76-.34c.44-.2.63,0,.43.44l-.34.73a.76.76,0,0,1-.16.22l.26.35A.76.76,0,0,1,22.94,9l.82-.13c.48-.08.61.16.3.54l-.52.62a.75.75,0,0,1-.22.18c.06.13.11.27.16.4a.74.74,0,0,1,.29,0l.82.09c.48.05.55.32.15.59l-.66.46a.76.76,0,0,1-.29.13c0,.14,0,.28.06.42a.74.74,0,0,1,.31.05l.77.3C25.38,12.85,25.38,13.12,24.92,13.29Z"/><path class="cls-1" d="M18,12.07l-.62-1.13a1.36,1.36,0,0,0-.11-.17L16.64,12a.74.74,0,0,1-.13.19c-.51.12-1,.19-1.53.31.15.18.32.33.47.51s.42.43.6.66c-.06.52-.14,1-.19,1.55.38-.16.75-.35,1.13-.52a1.15,1.15,0,0,1,.31-.13,2.77,2.77,0,0,1,.36.16l1.07.5c0-.52-.15-1-.19-1.57.1-.14.24-.27.36-.4s.47-.51.72-.76c-.5-.12-1-.2-1.52-.3C18.07,12.15,18.05,12.1,18,12.07Z"/><path class="cls-1" d="M17.31,7.88A5.09,5.09,0,1,0,22.4,13,5.09,5.09,0,0,0,17.31,7.88Zm0,9.22A4.13,4.13,0,1,1,21.44,13,4.13,4.13,0,0,1,17.31,17.11Z"/></g></g></svg>