<svg xmlns="http://www.w3.org/2000/svg" viewBox="0 0 30.46 37.14"><defs><style>.cls-1{fill:#5a471c;}</style></defs><title>Asset 1</title><g id="Layer_2" data-name="Layer 2"><g id="Layer_3" data-name="Layer 3"><rect class="cls-1" y="8" width="30.38" height="4"/><rect class="cls-1" x="7.64" y="16" width="22.74" height="4"/><rect class="cls-1" x="17.85" width="12.54" height="4"/><path class="cls-1" d="M8.59,37H7.49L7.2,33.27Q7,31.07,7,29.9L5.21,36.06H4.14L2.26,29.88q0,1.5-.16,3.47L1.82,37H.74l.68-8.27H3l1.74,6,1.66-6H7.91Z"/><path class="cls-1" d="M14.89,28.73l-.13.91h-3.2v2.7h2.78v.91H11.56v2.83H15V37H10.42V28.73Z"/><path class="cls-1" d="M22.51,37H21l-3.36-7c0,.55.09,1.06.11,1.53s0,1,0,1.7V37H16.72V28.73H18.2l3.4,7q0-.31-.1-1.09t-.06-1.43V28.73h1.07Z"/><path class="cls-1" d="M30.46,34.35a3,3,0,0,1-.34,1.46,2.42,2.42,0,0,1-1,1,3.25,3.25,0,0,1-1.57.35,2.85,2.85,0,0,1-2.13-.76,2.77,2.77,0,0,1-.75-2V28.73h1.14v5.53a2.09,2.09,0,0,0,.43,1.44,1.67,1.67,0,0,0,1.31.48,1.7,1.7,0,0,0,1.32-.47,2.09,2.09,0,0,0,.43-1.45V28.73h1.15Z"/></g></g></svg>