<svg xmlns="http://www.w3.org/2000/svg" viewBox="0 0 200 76.73"><defs><style>.cls-1{fill:#5a471c;}.cls-2{fill:#8a8e36;}.cls-3{fill:#fff;}.cls-4{fill:#adbc37;}</style></defs><title>Asset 1</title><g id="Layer_2" data-name="Layer 2"><g id="Layer_3" data-name="Layer 3"><path class="cls-1" d="M60.58,38l-.22.07a3,3,0,0,1-1.59.1c-.19,0-.68-.12-.39-.36a3.38,3.38,0,0,1,1-.48,8,8,0,0,1,1.52-.4l.41-.05v.79l-.47.23Z"/><path class="cls-1" d="M12.89,53.57a8.22,8.22,0,0,1,4-.19c.39.11.93.4.6.87a4,4,0,0,1-1.34,1c-1.25.7-2.54,1.34-3.83,2a78.24,78.24,0,0,0-7.94,4.06H3.56q.75-.41,1.47-.86a14.51,14.51,0,0,0,2.08-1.52,4.17,4.17,0,0,0,1.15-1.49.15.15,0,0,0-.11-.19c-1.84-.46-3.78.26-5.44,1-.93.44-1.83.94-2.72,1.44V58.58c2.52-1.18,5.12-2.21,7.7-3.24A36.28,36.28,0,0,1,12.89,53.57Z"/><path class="cls-1" d="M58.7,37.25c-.25.12-.63.29-.72.57-.18.55.67.68,1.33.68l-.49.17a11.62,11.62,0,0,1-2.13.54,2.37,2.37,0,0,1-1.52-.13c-.57-.36-.14-.86.27-1.11A9.06,9.06,0,0,1,58,37,24.58,24.58,0,0,1,61,36.47l.25,0v.11a7.5,7.5,0,0,0-1.05.18A8,8,0,0,0,58.7,37.25Z"/><path class="cls-1" d="M44.6,53.13a62.44,62.44,0,0,0-12,.35,49.75,49.75,0,0,0-10.74,2.75,89,89,0,0,0-10.94,5.06H7.11l.21-.13a38.89,38.89,0,0,1,5.16-2.61l2.67-1.08c.9-.36,1.79-.76,2.7-1.12,1.79-.7,3.64-1.23,5.49-1.78a25.11,25.11,0,0,0,3.49-1.18c.65-.3,1.65-.93,1.16-1.78a3.54,3.54,0,0,0-3-1.36,18.39,18.39,0,0,0-3.93.29c-1.77.28-3.52.58-5.27,1s-3.75.86-5.59,1.41S6.68,54.09,5,54.78s-3.31,1.37-5,2.07V54.9c2.13-.67,4.23-1.46,6.32-2.25a81.4,81.4,0,0,1,8.39-2.86c8.27-2.13,16.74-.89,25,.42a84.94,84.94,0,0,0,12.71,1.35,23.8,23.8,0,0,0,5.84-.78c1-.24,2-.5,3-.72v1a9.08,9.08,0,0,0-6.49,1.82.15.15,0,0,0,0,.22,8.29,8.29,0,0,0,2.89,1.51,26.85,26.85,0,0,0,3.34.91c.19,0,.27-.25.08-.29a27,27,0,0,1-3.17-.86A8.73,8.73,0,0,1,55.14,53a8.81,8.81,0,0,1,6.14-1.63v1.14a11.15,11.15,0,0,0-1.13-.26c-.57-.1-1.55-.27-2,.29-.53.73.48,1.33,1,1.59a13.52,13.52,0,0,0,2.06.75v1.63c-1.9-.55-3.8-1.12-5.71-1.63A55,55,0,0,0,44.6,53.13Z"/><path class="cls-1" d="M51.41,39.46a3.91,3.91,0,0,1,1.72-1.85,14.76,14.76,0,0,1,2.69-1.37,13.63,13.63,0,0,1,3.37-.86,12.46,12.46,0,0,1,2.09-.06v.83c-.7.08-1.4.19-2.09.32a19.17,19.17,0,0,0-2.51.64,5.2,5.2,0,0,0-1.7.84.82.82,0,0,0-.13,1.29,2.69,2.69,0,0,0,2.22.24,15.06,15.06,0,0,0,3.11-1l.68-.29.41-.17v1a11.49,11.49,0,0,1-4.14,1.19A11.73,11.73,0,0,1,51.41,39.46Z"/><path class="cls-1" d="M52.21,56.21a51,51,0,0,0-5.3-.63,49.47,49.47,0,0,0-11.28.08,43.46,43.46,0,0,0-5.42,1.24q-2.66.75-5.25,1.72-3.18,1.19-6.24,2.67h-7.2c2.65-1.41,5.33-2.72,8.1-3.87a54.35,54.35,0,0,1,10.64-3.26,56.59,56.59,0,0,1,11.87-.83,58.89,58.89,0,0,1,12.27,1.54c2.31.56,4.59,1.25,6.87,1.91v2.75a25.61,25.61,0,0,0-4-1.9A30.31,30.31,0,0,0,52.21,56.21Z"/><path class="cls-1" d="M59.62,53.95a2.58,2.58,0,0,1-1.19-.78c-.44-.74.88-.74,1.25-.7a9.17,9.17,0,0,1,1.6.34v.61a2.18,2.18,0,0,0-1.22.16.15.15,0,0,0,0,.26,3.09,3.09,0,0,0,1.22.43v.26h0A13.41,13.41,0,0,1,59.62,53.95Z"/><path class="cls-1" d="M51.71,49.59a36.8,36.8,0,0,1-5.75-.5c-1.83-.27-3.65-.58-5.46-1-.88-.2-1.76-.42-2.64-.67A9.61,9.61,0,0,1,36.51,47a3.4,3.4,0,0,0-.66-.19,12.92,12.92,0,0,1,5.18,0c2,.31,3.92.65,5.89.92a43.36,43.36,0,0,0,5.91.52c2.84,0,5.64-.47,8.46-.72v.92a13.14,13.14,0,0,1-3.91.59C55.49,49.29,53.62,49.56,51.71,49.59Z"/><path class="cls-1" d="M50,40.8a20.25,20.25,0,0,0-2.47-.14c-.54,0-1.08,0-1.62,0a11,11,0,0,0,3.57-1.78c1.31-1,2.52-2.08,3.91-2.91a10.69,10.69,0,0,1,4.67-1.47,18.63,18.63,0,0,1,3.22.06V35a11.79,11.79,0,0,0-2.19.08,14.33,14.33,0,0,0-3.48.91,14.14,14.14,0,0,0-2.84,1.49,3.79,3.79,0,0,0-1.7,2,.15.15,0,0,0,.07.17,11.9,11.9,0,0,0,6.09.85,12.12,12.12,0,0,0,4-1.15V40A20.53,20.53,0,0,1,55,41.25,36.23,36.23,0,0,1,50,40.8Z"/><path class="cls-1" d="M48.58,42.19a56.31,56.31,0,0,1-10.15-2c1.42-.52,3.06-.26,4.53-.27a8.39,8.39,0,0,0,2.33-.3,8.69,8.69,0,0,0,2.18-1c1.37-.85,2.56-2,3.92-2.82a26.94,26.94,0,0,1,3.71-2,13.86,13.86,0,0,1,6.18-1.4v1.79a12.9,12.9,0,0,0-8,1.45c-1.39.85-2.6,2-3.91,2.91A10.4,10.4,0,0,1,45,40.51a.15.15,0,0,0,0,.3,11.14,11.14,0,0,0,2.5.16A19.94,19.94,0,0,1,50,41.1a33.73,33.73,0,0,0,5,.45,21.36,21.36,0,0,0,6.25-1.29v1.57a13.17,13.17,0,0,1-3.06.71A41.86,41.86,0,0,1,48.58,42.19Z"/><path class="cls-1" d="M54.59,44.24a50.89,50.89,0,0,1-5.15-.57c-1.91-.3-3.8-.62-5.69-1.05-.87-.2-1.73-.43-2.6-.64-.71-.17-1.42-.3-2.13-.46a14,14,0,0,1-2.12-.59,4.25,4.25,0,0,1-.9-.46,3,3,0,0,1-.75-.6c1.4-.88,3.22-.89,4.82-1a14.91,14.91,0,0,0,2.38-.29,17.91,17.91,0,0,0,2.87-1c3.27-1.39,6.32-3.23,9.55-4.71a21.86,21.86,0,0,1,4.92-1.69A14.58,14.58,0,0,1,61.28,31v1.12a14.45,14.45,0,0,0-6.58,1.55,25,25,0,0,0-3.64,2c-1.36.91-2.57,2-4,2.86a8.14,8.14,0,0,1-2.29.92,10.09,10.09,0,0,1-2.4.16,9.63,9.63,0,0,0-4.47.47.16.16,0,0,0,0,.28,47.87,47.87,0,0,0,6.74,1.6,72.26,72.26,0,0,0,10,1.05,18.27,18.27,0,0,0,6.63-.82v1.46A20.89,20.89,0,0,1,54.59,44.24Z"/><path class="cls-1" d="M6.6,43.68c1.11-.2,2.22-.32,3.34-.49a20,20,0,0,1,3.19-.28,5.91,5.91,0,0,1,1.7.2c.32.1.84.3.9.69s-.44.48-.64.56a8.57,8.57,0,0,1-1.42.4c-.93.19-1.87.31-2.78.57-1.51.43-3,.91-4.48,1.47A27.37,27.37,0,0,0,0,50.11V45.92a10.44,10.44,0,0,1,2.05-1A24.89,24.89,0,0,1,6.6,43.68Z"/><path class="cls-1" d="M24.29,0H44a20.25,20.25,0,0,1-3.52,1.51C35.18,3.21,29.06,2.92,24.29,0Z"/><path class="cls-1" d="M4.43,14c.33.19,1.08.62.78,1.11a3.61,3.61,0,0,1-1.84,1.13c-.59.24-1.19.45-1.78.7A8,8,0,0,0,0,17.86v-.5c.74-.45,1.64-.55,2.41-1,.42-.24,1.19-.79.89-1.36s-1-.68-1.44-.82S.61,13.9,0,13.7V12a18.94,18.94,0,0,1,2.44,1C3.1,13.37,3.79,13.66,4.43,14Z"/><path class="cls-1" d="M3,15.15c.11.2-.05.41-.2.55a3.24,3.24,0,0,1-1.22.71A11.47,11.47,0,0,0,0,17V14c.52.16,1.06.27,1.59.42S2.79,14.71,3,15.15Z"/><path class="cls-1" d="M50.64,61.28H35.08C40.18,59.94,45.73,59.34,50.64,61.28Z"/><path class="cls-1" d="M40.44,58.33a27.48,27.48,0,0,1,10.26.32,22.7,22.7,0,0,1,6.47,2.64H51.43a15.27,15.27,0,0,0-1.82-.69A23,23,0,0,0,39.8,60a41.85,41.85,0,0,0-5.87,1.25H30q.74-.3,1.49-.58A44.37,44.37,0,0,1,40.44,58.33Z"/><path class="cls-1" d="M7.9,57.49a4.43,4.43,0,0,1-1.16,1.34,15.77,15.77,0,0,1-2.07,1.46c-.58.35-1.16.68-1.77,1H0V60.06c.89-.51,1.78-1,2.71-1.45C4.28,57.87,6.14,57.13,7.9,57.49Z"/><path class="cls-1" d="M13.28,13.24A44.92,44.92,0,0,0,19,14.41c.93.14,1.85.31,2.79.38s1.92.08,2.89.1a13.79,13.79,0,0,1,4.82.65,5.08,5.08,0,0,1,2.84,2.22,2.3,2.3,0,0,1-.91,3.08,6,6,0,0,1-3.56,0c-3.34-.75-6.54-2-9.84-2.86a25.43,25.43,0,0,0-5.38-.9,19.84,19.84,0,0,0-4.8.42A26.8,26.8,0,0,0,0,20.42V19.7a20.23,20.23,0,0,1,2.84-1.63,25.39,25.39,0,0,1,10-2.28c3.67-.09,7.13,1.12,10.59,2.2.86.27,1.74.56,2.62.76a3.79,3.79,0,0,0,1.78,0c.34-.09.77-.26.84-.65s-.41-.8-.74-1a9.48,9.48,0,0,0-2.43-.89c-.87-.22-1.76-.38-2.65-.51-1.74-.26-3.48-.51-5.23-.73A50.16,50.16,0,0,1,7,12.94,31.65,31.65,0,0,1,0,9.18V4.76C1.82,6.18,3.6,7.64,5.47,9A26.2,26.2,0,0,0,13.28,13.24Z"/><path class="cls-1" d="M45.91,23.23a58.41,58.41,0,0,0,8.35-3.45,12.89,12.89,0,0,0,2.92-2.22,8.09,8.09,0,0,0,1.18-1.5,1.46,1.46,0,0,0,.22-.82,1.12,1.12,0,0,0-.17-.47c-.06-.11-.18-.32-.28-.33a.13.13,0,0,1-.09,0l0,0h0A5.08,5.08,0,0,0,55,13a15.57,15.57,0,0,0-4,0c-1.29.13-2.58.36-3.86.6-1.45.27-2.9.49-4.36.71l-5.59.81a3.45,3.45,0,0,0-2.69,1.3,3.13,3.13,0,0,0-.3,1.69,8.77,8.77,0,0,0,.32,2,4.44,4.44,0,0,0,1.88,2.56,9.83,9.83,0,0,0,4.3,1.46A9,9,0,0,0,43.51,24,16.17,16.17,0,0,0,45.91,23.23Zm-3.31-.55a7.89,7.89,0,0,1-4.17-1.28,3.87,3.87,0,0,1-1.9-3.27,2.67,2.67,0,0,1,2.33-2.32c1-.2,2.1-.06,3.13-.21,1.6-.24,3.18-.62,4.77-.94a24.49,24.49,0,0,1,4.52-.56A12.66,12.66,0,0,1,56,15a.16.16,0,0,1,.1.17c1.3,1.63-1.46,2.9-2.62,3.42-.75.34-1.56.59-2.29,1a22.1,22.1,0,0,0-2,1.22,14.33,14.33,0,0,1-2,1.26A9.43,9.43,0,0,1,42.6,22.68Z"/><path class="cls-1" d="M43.77,32.15a27.25,27.25,0,0,1-12.5.51,36.09,36.09,0,0,1-6.05-2.08c-2-.85-4-1.78-6-2.7s-3.86-1.76-5.85-2.52a22.4,22.4,0,0,0-6.09-1.54,18.39,18.39,0,0,0-5.72.43q-.79.18-1.57.42v-.32a26.65,26.65,0,0,1,2.85-.76C5,23.15,7,22.3,9.21,22.18a14.32,14.32,0,0,1,6.34,1.45c1.93.84,3.77,1.86,5.62,2.85,3.61,1.95,7.28,4,11.31,4.9a21.5,21.5,0,0,0,11.93-.78A72.91,72.91,0,0,0,55.74,25c1.8-1,3.64-1.89,5.52-2.72h0v1.65c-2.06,1.12-4.06,2.35-6.1,3.5A45.55,45.55,0,0,1,43.77,32.15Z"/><path class="cls-1" d="M43.44,20.78a9.11,9.11,0,0,0,1.67.2,4.42,4.42,0,0,0,2.14-.59c1.06-.57,2-1.41,3.07-1.93.66-.31,1.34-.58,2-.89a7.53,7.53,0,0,0,2-1.16c.13-.12.31-.31.26-.51s-.5-.38-.71-.44c-1.26-.4-2.6.32-3.84.53a.15.15,0,0,1-.13,0c-.55.09-1.12.12-1.67.17-1,.09-2,.17-3.05.29a27.84,27.84,0,0,0-3.14.5,5.06,5.06,0,0,0-2.15.86c-.63.53-.17,1.28.35,1.71A7.58,7.58,0,0,0,43.44,20.78Zm1.11-.17a5.43,5.43,0,0,1-1.76-.35,2.53,2.53,0,0,1-1.24-.83.9.9,0,0,1,.19-1.15,2.56,2.56,0,0,1,1.59-.56l.76-.11a.16.16,0,0,1,.17.09.12.12,0,0,1,.11-.09,34.07,34.07,0,0,0,3.95-1.07,5.72,5.72,0,0,1,3.8,0,.15.15,0,0,1,0,.24,6.52,6.52,0,0,1-1.62,1c-.66.34-1.34.64-2,1C47.24,19.54,46.14,20.64,44.55,20.61Z"/><path class="cls-1" d="M60,38.47a3.85,3.85,0,0,1-.67,0c-.66,0-1.51-.14-1.33-.68.09-.29.47-.45.72-.57a8,8,0,0,1,1.53-.53,7.5,7.5,0,0,1,1.05-.18v.31l-.41.05a8,8,0,0,0-1.52.4,3.38,3.38,0,0,0-1,.48c-.3.24.19.31.39.36a3,3,0,0,0,1.59-.1l.22-.07c.24-.08.47-.18.7-.28V38l-.41.17A5.55,5.55,0,0,1,60,38.47Z"/><path class="cls-1" d="M12.59,53.33a10,10,0,0,1,4-.32,1.73,1.73,0,0,1,1.21.59.82.82,0,0,1-.2,1,5.22,5.22,0,0,1-1.35,1c-.48.27-1,.51-1.47.77-3.17,1.67-6.52,3-9.6,4.81L5,61.28H4.41a78.24,78.24,0,0,1,7.94-4.06c1.29-.62,2.58-1.25,3.83-2a4,4,0,0,0,1.34-1c.33-.47-.21-.76-.6-.87a8.22,8.22,0,0,0-4,.19A36.28,36.28,0,0,0,7.7,55.34c-2.58,1-5.18,2.06-7.7,3.24v-.33c2.44-1.12,4.94-2.11,7.43-3.13A38.4,38.4,0,0,1,12.59,53.33Z"/><path class="cls-2" d="M60.3,50.3l-.08,0-.7.17-.42.1-.3.08-.06,0-.35.08h-.1l-.54.13-.1,0c-.5.11-1,.21-1.49.3l-.4.07-.2,0-.11,0-.45.06h-.1l-.35,0-.23,0H54c-.53,0-1.06.06-1.6.06h-.56q-.87,0-1.73-.06h-.07l-1.53-.11h-.18c-2.89-.25-5.77-.7-8.63-1.15L38.48,50,38.12,50l-.16,0h-.07l-1.64-.25h-.12q-1.49-.22-3-.41L32,49.13H32c-.92-.1-1.84-.19-2.76-.27H29l-.66,0-1.08-.06-1.17,0H25.6c-1.08,0-2.15,0-3.23,0h-.5l-.31,0h-.06l-.23,0-.23,0-1,.09q-.75.08-1.49.18l-.46.07-.11,0h-.07l-.39.06-.66.12-1,.21-.62.14h-.06l-.11,0-.27.07q-.78.2-1.54.43l-.15,0-.09,0-.37.12c-1.46.46-2.91,1-4.34,1.53h0l-.07,0-.06,0-.24.09,0,0-.18.07-1.27.48-1.92.72-.31.12-.09,0H4l-.1,0-.08,0-.49.18-.28.1L3,53.9l-.06,0-.08,0-.07,0-.06,0-.32.11-.29.1-.09,0-.06,0-.46.16L0,54.91v-.32l1-.32.27-.09.28-.1L1.85,54l1.67-.6.4-.15.35-.13,2.67-1h0l.4-.15h0l.21-.08,2.05-.76c1.31-.47,2.62-.93,4-1.31l.1,0h0l.1,0,.26-.07.11,0,.18,0,.15,0,.6-.15h.13l.27-.06.09,0,.63-.14.52-.11.13,0h0l.26-.05.49-.08.19,0,1.1-.16.62-.08,1.23-.12.85-.06c1.22-.08,2.43-.1,3.64-.08h.23l1.55.06.44,0,.39,0,1.85.14.55.05.53.06,1,.11.6.07,2.38.32,3.35.5,2.15.33,2.48.37.28,0,.48.07h.09l.11,0h0l.22,0,1,.13.18,0h.08l.23,0,.15,0h.08l1.13.13,1.81.18c.72.07,1.44.12,2.16.15l.62,0H52c.68,0,1.35,0,2-.06h.14l.22,0h.1l.55-.06.23,0h.06l.17,0,.19,0,.1,0,.15,0,.21,0,.11,0,.13,0,.09,0,.12,0,.51-.11c1.06-.23,2.11-.51,3.17-.76l.14,0,.09,0,.75-.17h0v.31h0Z"/><path class="cls-2" d="M60.93,46l-.3.07c-.75.18-1.5.33-2.26.45h-.06l-.28,0-.31,0-.51.06-.43,0-.21,0a31.24,31.24,0,0,1-5.06.06c-.58,0-1.15-.09-1.72-.16h-.08l-.41,0c-.81-.1-1.62-.23-2.42-.38h0l-.28-.05-.36-.07h0l-1-.2-.11,0h-.05l-.86-.2-.13,0-.06,0-.16,0-.8-.2-.19,0-.07,0L41,44.83l-.89-.26-.91-.27L38.09,44l-.62-.2-.05,0-.91-.29-.17-.06-.07,0-.67-.22-.16-.05-.15,0L35,42.94l-.08,0h0l-.16-.05h0l-.06,0-.95-.32,0,0h0l-.11,0h0l-.54-.18-.3-.1-.15-.05-.12,0L32,42l-.35-.12-.17-.06-.08,0-.89-.29-2.41-.76-.87-.26-.13,0-.83-.24L26,40.1l-.16,0L25.69,40h0l-.78-.21-1.37-.34q-1.41-.34-2.84-.59l-.54-.09H20l-.13,0-.3,0h-.25l-.74-.09h-.08l-.35,0H18l-.33,0h-.2q-.68-.06-1.37-.08H14.5l-1,0h0q-.57,0-1.15.11l-.16,0-.17,0h-.11l-.73.12h0q-.78.15-1.55.36c-.79.22-1.57.49-2.34.78l-.05,0-.12,0H7l-.83.33-.09,0-.2.08h0l-.09,0h0l-.25.1-.16.06-.3.12-.35.14-.21.09L4.2,41,4,41.1l-.71.29-.35.14-.08,0c-.47.18-1,.36-1.43.53s-.93.31-1.4.45v-.31L.69,42c.53-.17,1-.35,1.57-.55l.15-.06h0l.26-.1.07,0,1.14-.46h0l.9-.37.05,0,.26-.11.24-.1.5-.2.78-.31a30,30,0,0,1,3-1l.09,0h0l.08,0H9.9a17.8,17.8,0,0,1,2-.41A23.06,23.06,0,0,1,15.81,38h0l.55,0h0l.65,0,.32,0h.24l.43,0,.18,0,.39,0h.13l.22,0h.29l.64.09.54.09.2,0,.21,0h0l.4.07h0l.09,0,.17,0,.1,0,.09,0q1,.19,1.94.43h.05l.3.07.14,0,.1,0,.4.1.06,0,.33.09h.06l.12,0,.51.14.09,0,.07,0,.29.08.59.17.15,0,.07,0,.63.19.14,0,.1,0,.06,0,.06,0,.12,0h0l.12,0h0l.28.09,1.8.57.79.26.19.06,0,0,1,.32.43.14.11,0h0l.1,0,.34.11.07,0h0l.18.06.14,0,.42.14h0l1,.34h0l.3.1.07,0h0L36,43l1.25.41.06,0h0l.59.19c1,.31,1.94.6,2.92.88l.09,0,.1,0,1.49.41.35.09.39.1.33.08.13,0,1.64.38.07,0,.44.09,1.31.25h0l.12,0c1.3.23,2.61.4,3.93.5l.56,0,.49,0,.82,0q1.14,0,2.27,0h.17A28.45,28.45,0,0,0,59,46.11l.1,0h0q1.06-.2,2.09-.48h0v.32h0L61,46Z"/><path class="cls-2" d="M61.25,28.72l-.08.05-.42.26-.2.12-1,.64q-1,.61-2.07,1.2l-.58.32-.27.15-.51.27-.3.16-.16.09h0l0,0,0,0-.07,0q-.94.49-1.91.94-1.18.56-2.38,1.07l-.12,0-.08,0q-.88.36-1.76.7l-.09,0L48.9,35a45.75,45.75,0,0,1-5.54,1.66,29.79,29.79,0,0,1-10.45.65l-.79-.11c-.41-.07-.82-.15-1.22-.24s-.88-.21-1.32-.34-1.15-.35-1.73-.54l-1.4-.49-.11,0-.06,0h0l-1.93-.7-.74-.27-.25-.09-.05,0-.13,0L23,34.28l-.63-.23-1.28-.45-.06,0-.25-.09q-.8-.27-1.6-.51l-.13,0H19l-.21-.06-.11,0-.1,0-.08,0q-.73-.2-1.46-.38h0l-.06,0-.07,0h0l-.47-.1-.28-.06H16c-.57-.12-1.15-.21-1.73-.29h-.09L13,31.75H12.5a21,21,0,0,0-3.67.08,15.09,15.09,0,0,0-3.45.82l-.07,0c-.43.16-.86.34-1.28.53l-.31.14q-.48.23-1,.49c-.41.22-.82.46-1.22.7s-1,.65-1.52,1v-.38l1-.68L2,33.86l0,0,.23-.13h0l0,0,.11-.06q.81-.45,1.66-.82l.11,0,.66-.27.31-.12,0,0,.25-.09.8-.25h0l.14,0,.48-.13.34-.08h.11l.7-.13.87-.12q.56-.06,1.13-.09l.51,0H11c.67,0,1.34,0,2,.08h.11l.22,0h.17l.37,0h0l.36,0,.83.13q.79.14,1.58.32h0l.23.05.7.18.36.1.08,0,.23.06.76.22.26.08.13,0h0c.62.19,1.24.4,1.85.61l.68.24.87.31.76.28.49.18.09,0,.3.11.57.21.22.08.1,0,.8.3.4.15.18.07c.57.2,1.14.4,1.72.59l.12,0,.3.09c.44.13.88.26,1.33.37l.33.08c.43.1.86.19,1.29.27s1,.16,1.54.22h.1l.28,0c.67.06,1.33.09,2,.1h1.52l.46,0a36.88,36.88,0,0,0,9.64-2l.69-.24.35-.12.07,0,.21-.08.05,0,1.42-.55.06,0,.16-.06q1-.39,1.89-.82l0,0,.09,0,.2-.09.08,0q1.09-.5,2.17-1.05l0,0,.24-.12h0l.24-.12.07,0,.07,0,.55-.29.07,0,.08,0,.41-.22.06,0,0,0,.2-.11.1-.06,0,0,.24-.13.86-.48.51-.3.07,0,.12-.07.91-.54.09-.05.11-.06.29-.18.44-.27.43-.27,0,0v.37l0,0Z"/><path class="cls-2" d="M59.8,25.13l-2.68,1.56-.07,0-1.24.72-.14.08-.07,0,0,0-.06,0-1,.58q-1.06.58-2.13,1.12l-.06,0-.06,0L51,30l-.41.18-.09,0-.17.07-.07,0,0,0h0l-.1,0,0,0-.11,0h0l-.37.15-.12,0-.14.06-.15.06-.19.07h0l0,0-.17.07-.14.05-.26.1q-1.9.71-3.87,1.24l-.86.22h0a33.76,33.76,0,0,1-4.18.76l-.16,0h-.11q-.79.09-1.59.12l-.42,0h-1.2c-.53,0-1.06,0-1.59-.06q-1-.07-2-.24c-.41-.07-.82-.15-1.23-.24l-.1,0h0l-.78-.2c-.47-.13-.93-.27-1.39-.43l-.24-.08-.06,0h0l0,0-.14,0,0,0-.4-.14-.6-.22h0l-.58-.22-.4-.16h0l-.15-.06-.1,0-.25-.1-.09,0-.09,0-.24-.1-1.77-.76-.7-.31-.24-.11-1.19-.54-.07,0-.16-.07-.66-.3,0,0-.1,0-.63-.29c-1.15-.53-2.29-1.06-3.45-1.56-.63-.28-1.27-.55-1.91-.81-.81-.33-1.62-.64-2.44-.92a22.7,22.7,0,0,0-3.11-.83l-.34-.06H8.45l-.21,0-.39-.05A16,16,0,0,0,6,24.08H5.9q-.7,0-1.39.06l-.39,0-.16,0A22.59,22.59,0,0,0,0,25v-.34c.52-.15,1-.29,1.57-.42a18.54,18.54,0,0,1,1.9-.34l.31,0,.3,0a17.78,17.78,0,0,1,3.21,0A20.79,20.79,0,0,1,12.47,25l.93.34c1.17.45,2.32.94,3.47,1.44l2.37,1.07,1.06.49.72.33.31.15.17.08.11.05.06,0,.53.24.84.38.18.08,0,0h0l.94.41,1,.43.3.12.25.1.14.06,0,0,.19.08.13.05.1,0h0l.16.06.17.07.17.07.48.18.1,0,.18.07.33.12.31.11.08,0h0l.14,0,.28.09,1.16.36.19.05h.05l.12,0,.07,0h0l.35.09.53.13h.09l.4.08h0a21.59,21.59,0,0,0,2.86.36h.12q.83,0,1.66,0h1.05q.7,0,1.4-.11h.2l.39,0h.05l.87-.12.6-.1.09,0,1.32-.25.08,0,.48-.11.55-.13.3-.07q1.83-.46,3.58-1.09l.08,0L47.6,31l.14-.05.36-.13.24-.09.76-.3.17-.07.22-.09,0,0,.1,0,.27-.12.66-.29.18-.08.15-.07.52-.24q1.26-.59,2.48-1.24l1.32-.73.14-.08.33-.19.75-.43.11-.06.22-.13,0,0,.07,0,.06,0L59.34,25c.63-.36,1.27-.73,1.91-1.08l0,0v.34l0,0Z"/><path class="cls-2" d="M58.63,19.29l-.08,0-.6.28-.21.1-.64.34c-.52.28-1,.58-1.54.89l-.14.09-.3.18L53.84,22l-1.19.79-.07,0,0,0-.35.23-.08.05-1.37.89,0,0-.06,0-.55.34-.27.16-.07,0h0A21.41,21.41,0,0,1,47.11,26l-.65.25a15.55,15.55,0,0,1-4.91.77,22.3,22.3,0,0,1-3.23-.17l-.24,0-.22,0a39.6,39.6,0,0,1-7.33-1.88l-1.71-.61L25.25,23l-.09,0-.29-.11-.14-.05-.14-.05c-1.12-.41-2.24-.8-3.38-1.15L20,21.24l-.49-.13a31.13,31.13,0,0,0-12.22-.75l-.84.13h0l-.48.09H5.82l-.14,0-.13,0h0l-.36.08L4,21q-1.57.4-3.09,1L.79,22l0,0-.4.15h0l-.3.12V22l.46-.17,0,0h0C1.3,21.49,2,21.24,2.79,21l1.11-.3.27-.07h0l.72-.17h0l.13,0,.11,0,.25-.05a30.88,30.88,0,0,1,5.5-.62A33,33,0,0,1,21,21.23l.69.21.11,0,.13,0,.94.31c1.05.36,2.11.75,3.17,1.14s2.41.9,3.63,1.33a42.5,42.5,0,0,0,8.48,2.24l.72.09h.3a20.08,20.08,0,0,0,6-.3,9,9,0,0,0,1-.25h0l.17-.06a16.33,16.33,0,0,0,2.49-1.15l.42-.23.93-.55.16-.1.07,0,1.18-.76.21-.14.18-.12.07,0,.1-.07.43-.28.81-.53c.58-.38,1.16-.77,1.76-1.14h0l.34-.21.11-.07.43-.26.17-.1.12-.07c.39-.23.79-.44,1.19-.65l.24-.12.33-.16a16.52,16.52,0,0,1,2.15-.85,9.56,9.56,0,0,1,1.08-.27h0v.33h0a12.64,12.64,0,0,0-2.58.84Z"/><path class="cls-2" d="M11.79,60.82l.52-.27.26-.14.16-.08.15-.08.14-.07.2-.1.38-.19.06,0,.17-.09,1.27-.63.08,0,.17-.08.36-.17,0,0,.21-.1.1,0,1.08-.5.24-.11.15-.07.15-.07.08,0,.31-.14.19-.08,1.5-.64.11,0h0l.32-.13,0,0,.22-.09.46-.18.92-.35.06,0,0,0,.22-.08a52.29,52.29,0,0,1,7-2l.16,0,.27-.06,1-.2h0l.84-.14h.08l.43-.07.67-.09c1.36-.18,2.73-.31,4.1-.38h.45Q38.46,53,39.79,53h.78q1.57,0,3.12.09h.63l.28,0q1.1.07,2.19.17l.37,0h0l.45,0,.26,0,.21,0h.1a53.17,53.17,0,0,1,5.9,1l.29.07,1,.26.16,0,.18,0L56,55l.8.22,2,.56.05,0,.12,0,2.27.66h0v.3h0L58.52,56h0l-.13,0-.09,0-.69-.2-.65-.18-.24-.07-.32-.09h0l-.18,0-.08,0-.18,0h0l-.1,0-.22-.06-.06,0-1.07-.27-.11,0-.11,0-.17,0-.12,0-.38-.09a56.38,56.38,0,0,0-6.39-1l-.28,0c-1.56-.15-3.13-.25-4.7-.29q-1.69,0-3.39,0h-.87l-.58,0h-.65l-1.13.07c-1.06.08-2.13.19-3.18.34l-.14,0h-.08l-.71.11h-.16l-.17,0-.22,0-.1,0-.48.08-.12,0-.12,0-.3.06-.08,0h-.07l-.08,0-.14,0h0l-.09,0h0l-.13,0a52.51,52.51,0,0,0-6.8,2l-.16.06h0l-.25.09-.73.28-.71.28-.81.33-.84.35-.1,0h0l-.09,0-.61.27-.1,0,0,0-.09,0,0,0h0l-.17.08-1.31.6-.08,0,0,0-1.93.94-.33.17-.85.44-.35.18-.39.21-.62.33-.06,0h-.64l.06,0,.8-.43Z"/><path class="cls-2" d="M18.9,61.21l.31-.15h0l.08,0,.13-.06.43-.2h0l.17-.08q2.42-1.11,4.91-2l1.09-.39,1.17-.4,1.3-.42.05,0,.39-.12,1.24-.36.76-.21.07,0,.76-.2.08,0,.85-.21c.53-.13,1.06-.25,1.6-.35s.86-.16,1.29-.22.92-.13,1.38-.17l.39,0,.88-.07h.15l.44,0H39a59.94,59.94,0,0,1,7.58.2l.29,0h.09l.44,0,1.31.12h0c1.18.12,2.36.26,3.53.48q.92.17,1.84.4l.29.07.31.08.17,0,.76.22,1.22.4.1,0,.42.15.38.15.19.07.22.09.25.1.44.19a25.45,25.45,0,0,1,2.29,1.17l.17.1,0,0v.36l0,0-.76-.43q-1.08-.59-2.22-1.08l-.13-.05-.11,0a28.46,28.46,0,0,0-2.86-1l-.16,0-.06,0-.72-.2-.08,0L53,56.67A40.06,40.06,0,0,0,48.11,56h-.24l-.18,0h-.13l-1.25-.1h-.07l-.38,0c-1.32-.09-2.63-.16-4-.19H40.06l-.56,0h-.65l-1.12.07-.33,0h-.13l-1,.11-1,.15h0l-.1,0c-1,.18-2,.41-3.06.67l-1.29.35-1.2.34-.12,0-.09,0-.08,0-.08,0-1.81.58-.06,0-.05,0-.53.18c-2.13.73-4.23,1.58-6.28,2.51l-.09,0h0l0,0-.13.06-.06,0-.29.13h0l-.24.11-.07,0h-.7l.07,0Z"/><path class="cls-2" d="M30,61l.72-.29.43-.17h0q.81-.31,1.63-.59c1.4-.48,2.82-.9,4.26-1.25l.75-.18.61-.13.32-.06h.06q1.07-.21,2.15-.35H41l.52-.06.19,0,.26,0,1.26-.1h.43c.53,0,1.06,0,1.59,0h.52a25.65,25.65,0,0,1,5.84.87l.35.1q.68.2,1.34.44l.29.11.16.06.18.07.62.26.17.08,0,0,.6.28q.71.34,1.39.73l.11.06.14.08.16.09,0,0,.05,0,.36.22,0,0,.05,0h-.59l-.06,0a23.47,23.47,0,0,0-2.29-1.2l-.24-.11a22.29,22.29,0,0,0-3.65-1.24l-.23-.06a26,26,0,0,0-7-.63h-.28q-.93,0-1.86.15h-.13l-.68.09-.19,0-.14,0h-.2l-.52.08-.12,0-.28,0-.08,0-.21,0a46.15,46.15,0,0,0-7.5,2.13l-.33.13-.59.23-.49.2-.09,0h-.78l.08,0Z"/><path class="cls-2" d="M34.49,61.13l.36-.1c1.15-.3,2.31-.57,3.47-.77h.08l.89-.14.14,0,.11,0,.24,0h0c.67-.09,1.34-.16,2-.21l.56,0h.18c.6,0,1.21,0,1.82,0h.53q.68,0,1.35.11h0a18.78,18.78,0,0,1,3.34.69,15.57,15.57,0,0,1,1.74.65l.08,0h-.79l-.09,0A18.94,18.94,0,0,0,43.67,60h-.11l-1,0h-.05l-.35,0H42l-1,.08h0l-.58.06h-.08l-.32,0-.14,0-.32,0a40.3,40.3,0,0,0-4.33.9l-.13,0H33.95l.12,0,.39-.11Z"/><path class="cls-2" d="M60.29,11.43l-.23,0h0l-.48,0h-.34l-.71,0c-.77,0-1.54,0-2.3-.05H51c-1.09,0-2.18,0-3.26.11-2.23.14-4.44.45-6.65.8l-3.32.53-.1,0h0l-.92.14-.11,0a56.67,56.67,0,0,1-8.48.79,30.89,30.89,0,0,1-7-.81l-.61-.15-.35-.09Q19,12.39,18,12l-.28-.09-.13,0-.07,0-.57-.21-.6-.23q-1.43-.57-2.81-1.26l-.16-.08-.75-.39-.18-.1-.32-.18-.06,0L11.44,9,11.34,9l-.11-.06h0l-.17-.11L11,8.74c-.64-.39-1.26-.8-1.88-1.23l-.16-.11-.14-.09L6.6,5.77,6.36,5.6l-.15-.11c-.86-.61-1.72-1.21-2.6-1.81l0,0-.07,0-.12-.08L2.8,3.14l-.08-.05-.41-.27h0l-.15-.1Q1.1,2,0,1.42V1.07C.79,1.5,1.53,2,2.26,2.43l.14.09.33.21.11.07,0,0,.39.26.14.09.24.16.08.05.29.2.12.08.29.2.43.3.27.19.17.12.1.07.3.21,0,0,.1.07.08.06.05,0L6,5l.71.5.22.15.29.2c.68.49,1.36,1,2.06,1.44l.05,0,.17.12c.73.5,1.48,1,2.24,1.43l.06,0,.62.35.11.06q.6.33,1.21.64l.4.19.13.06h0q1.48.71,3,1.27l.45.16.08,0h0l.19.07.83.27,1,.28.52.13.58.14.45.1.08,0,.28.06.19,0a32.31,32.31,0,0,0,7.42.6,57.33,57.33,0,0,0,6.53-.66h.14c2.16-.32,4.31-.71,6.46-1a59,59,0,0,1,6.23-.63c.95,0,1.9-.06,2.85-.06h4.45c.94,0,1.87,0,2.81.07.61,0,1.22.08,1.82.14h.15l.28,0h.17v.31h0Z"/><path class="cls-2" d="M60.8,6.33l-1-.2L59.17,6h-.1L59,6l-.23,0-.11,0h0l-.42-.05H58l-.43,0H57.3l-.87-.05a28.35,28.35,0,0,0-5.61.39l-.26,0c-2.27.38-4.51.94-6.72,1.46L42.38,8l-.25.06-.07,0-.23.05-.1,0-.08,0-.27.06c-1.25.29-2.51.56-3.77.78-.84.15-1.69.26-2.54.35h-.13l-.33,0-.25,0h-.14l-.43,0h0l-1.21.06h-.05l-1.32,0L30,9.53h-.17l-.48,0A42.46,42.46,0,0,1,24.87,9l-.39-.06-.1,0h-.22l-1.63-.32-.16,0h0L22,8.46h0l-.41-.09-.07,0-.33-.08q-1.27-.3-2.53-.65l-.17,0Q16.73,7.08,15,6.5l-.23-.08-.4-.14-1.1-.39-1.51-.55-.52-.2h0l-1.1-.46-.44-.2h0l-.08,0C9.27,4.28,9,4.13,8.65,4l-.57-.32-.29-.17-.64-.4-.47-.31-.47-.32-.08-.06,0,0-.91-.66-.1-.07,0,0-.17-.12-.2-.15-.19-.14,0,0L2.94,0h.52l1.38,1,.06,0h0l1,.73.05,0L6.19,2l.61.42.66.44.2.13,0,0q.47.29,1,.56l.74.4,0,0,.14.07.77.36.21.09.06,0h0l1.24.5.32.12.08,0c1,.36,1.94.7,2.91,1l1.28.41q1.12.35,2.26.67,1.59.44,3.19.81l.15,0,.19,0,.18,0,.21,0,.11,0,1.06.21.23,0h.06l.25,0h0a42.64,42.64,0,0,0,5.22.58q.79,0,1.57,0l1.4,0q1.6,0,3.19-.23c1.47-.17,2.93-.44,4.39-.76l.16,0h.07l.08,0h0c2.64-.58,5.26-1.3,7.91-1.84a32.42,32.42,0,0,1,9.67-.74l.65.07h.24q1.16.16,2.3.42h0v.32h0l-.32-.07Z"/><path class="cls-2" d="M55.42,4l-1.78.06h-.36l-1,.05h-.08l-.34,0-.47,0-.94.07-.3,0H50l-.2,0h0l-.51.06-.47.06-.6.08h0l-1.7.25-.25,0-.09,0-.12,0L45.26,5,44.82,5h-.1l-.24,0-.09,0h0l-.12,0h0l-.22,0-.55.11-.64.13-.13,0-.09,0-.93.21h-.06l-.37.08-.35.08h0l-.14,0-.09,0L40.15,6l-.26.06c-.89.2-1.79.4-2.69.57h0l-.12,0h0c-.69.13-1.39.25-2.09.34l-.18,0h-.06l-.5.06q-.66.07-1.32.1h0l-.92,0H30.71l-1,0Q28.6,7.13,27.45,7a33.65,33.65,0,0,1-3.51-.68l-.14,0-.28-.07L22.13,5.8a38,38,0,0,1-4-1.46L18,4.27,17.46,4,17,3.82,17,3.8l-.14-.07-.06,0-.39-.19-.06,0-.12-.06,0,0h0l-.36-.18-.08,0L15.37,3,15,2.85l-.19-.1-.29-.16h0l-.08,0-.13-.07-.07,0-.18-.1q-.59-.33-1.16-.7l-.64-.42L12,1c-.4-.29-.8-.59-1.18-.92l0,0h.46c.39.32.8.62,1.21.91l.27.18.93.59c.37.22.75.43,1.13.64l.13.07.69.36.71.35.31.15.16.08.48.22,0,0,.07,0,.54.24.16.07.13.06q1.26.54,2.56,1A35.11,35.11,0,0,0,24.2,6l.44.1.1,0q.77.17,1.55.31l.13,0c.55.09,1.1.17,1.65.24h.11q.94.11,1.89.16h.12l1.32,0h0q.95,0,1.89-.06a28.27,28.27,0,0,0,3.09-.38l.32-.06h0l.25,0,.14,0,.41-.09.08,0,.1,0L38.7,6l.11,0,.1,0,.2,0,.13,0,.16,0,.53-.12.56-.13.18,0L41,5.52l.16,0,.08,0,.23-.05.86-.19.1,0,.18,0h0l.13,0,.08,0h.09l.2,0h0l1.35-.26L45,4.7l.19,0,.22,0,.21,0L46,4.54l.09,0,.24,0,.15,0h0l.21,0,1.34-.19,1.52-.18L50.14,4l.29,0h.07l.35,0c1.1-.09,2.2-.16,3.31-.19a58.3,58.3,0,0,1,7.08,0h0v.3h0A46.76,46.76,0,0,0,55.42,4Z"/><path class="cls-2" d="M42.57,1.07l-.12.05h0l-.25.1-.05,0L42,1.32l-.2.08h-.06l-.21.08-.75.27L40.1,2l-.47.14h0l-.46.12-.13,0-.38.09-.48.1-.47.09-.12,0-.92.14h-.11l-.13,0-.18,0h0L36,2.8h0l-.32,0-.86.06L34,2.9h-.12l-.87,0A19.41,19.41,0,0,1,26.8,1.61,16,16,0,0,1,25.23.91L24.48.49l-.06,0L23.74,0h.56a16.47,16.47,0,0,0,1.8,1l.07,0,0,0a18.88,18.88,0,0,0,7.64,1.55h1q.87,0,1.73-.15l.17,0c.57-.08,1.14-.18,1.7-.3l.85-.21.77-.22.35-.11.14,0h0l.26-.09h0l.06,0,.18-.07.19-.07L41.87,1,42.05,1h0l.06,0,.06,0,.09,0,.19-.08.16-.07.11,0Q43.37.37,44,0h.42a.14.14,0,0,1-.07.16q-.69.39-1.41.72Z"/><path class="cls-2" d="M57.38,17.82l.19-.2.26-.3,0,0a8.79,8.79,0,0,0,.69-.9h0l.1-.17.1-.21,0-.05,0-.08,0-.13v-.12a.82.82,0,0,0,0-.09s0-.07,0-.1a1.14,1.14,0,0,0,0-.14,1.24,1.24,0,0,0,0-.15,1.57,1.57,0,0,0-.05-.21l-.05-.13-.06-.12,0,0,0,0,0-.08,0-.06,0-.06-.08-.1a.47.47,0,0,0-.25-.15A4.65,4.65,0,0,0,56.12,13a9.17,9.17,0,0,0-2-.32,19.89,19.89,0,0,0-3.5.16h-.12l-.18,0-.33,0h0l-1.2.19c-1.11.19-2.21.44-3.32.61l-6,.89c-.82.12-1.64.21-2.45.34a7.77,7.77,0,0,0-1,.22l-.23.08-.32.13h0a2.67,2.67,0,0,0-.5.31,2.34,2.34,0,0,0-.41.41,2.65,2.65,0,0,0-.18.27l-.11.21-.07.18,0,.13a3,3,0,0,0-.09.42c0,.1,0,.2,0,.3v0A8,8,0,0,0,34,19l0,.19c0,.15.05.31.08.46a7.15,7.15,0,0,0,.22.81l0,0,0,.05a5.28,5.28,0,0,0,.29.68l.17.3a4.91,4.91,0,0,0,1.7,1.61l.36.2a11.25,11.25,0,0,0,3,1l.09,0,.12,0c.24,0,.49.07.73.09l.52,0h.37a9.47,9.47,0,0,0,1.06-.08l.17,0,.22,0c.27,0,.55-.11.82-.18.78-.21,1.53-.53,2.28-.81l.36-.13.28-.1h0l.31-.11,2.23-.81a30.64,30.64,0,0,0,5-2.28l.31-.19L55,19.7l.65-.44.2-.14A11.35,11.35,0,0,0,57.38,17.82Zm-.2-.24-.09.1-.06.06L57,17.8l-.09.09-.38.35-.09.07-.36.3-.08.06-.33.25,0,0-.13.09-.07,0,0,0-.08.06-.11.07c-.29.19-.59.38-.89.55a36.22,36.22,0,0,1-5.73,2.49l-1.59.58-.45.16-.3.11-.27.1-.16.06-.17.07h0l-.07,0-.12,0-.07,0a12.62,12.62,0,0,1-1.79.56,9,9,0,0,1-2.77.17,10.16,10.16,0,0,1-3.65-1.08L36.79,23l0,0-.29-.18a4.58,4.58,0,0,1-1.06-.95,4.45,4.45,0,0,1-.72-1.29l-.08-.25,0-.06v0l0-.06,0-.09,0-.2v0l0-.17c0-.17-.07-.34-.09-.52V19c0-.29-.07-.58-.08-.88s0-.39,0-.59c0,0,0-.1,0-.14v-.12a2.69,2.69,0,0,1,.11-.47l0-.09a2.1,2.1,0,0,1,.13-.28h0l0-.08,0,0,.05-.07.13-.16.07-.07a2.07,2.07,0,0,1,.3-.24l.12-.08.28-.15.18-.08.05,0a6.89,6.89,0,0,1,1.42-.32l.26,0,.22,0,.22,0,.47-.07h0l.43-.06h0l.2,0h.08l3.67-.53L45.27,14l.14,0,1.79-.31c1.28-.24,2.56-.47,3.85-.6a15.62,15.62,0,0,1,4,0l.68.13A4.58,4.58,0,0,1,58,14.41h0a.13.13,0,0,0,.09,0c.06,0,.13.09.19.17l.06.1,0,.06v0a1.61,1.61,0,0,1,.1.21.8.8,0,0,1,.05.21.32.32,0,0,1,0,0s0,0,0,.07,0,0,0,.05a1.17,1.17,0,0,1,0,.17h0a1.4,1.4,0,0,1-.05.21,1.7,1.7,0,0,1-.11.26l0,.06v0l0,.07v0l-.05.08-.07.11L58,16.6l0,0a8.94,8.94,0,0,1-.58.7h0l-.07.07Z"/><path class="cls-2" d="M54.76,18l.19-.11.11-.07.43-.29.06-.05.1-.08.25-.22a2,2,0,0,0,.51-.74,1.21,1.21,0,0,0,.06-.26,1.09,1.09,0,0,0,0-.47,1.12,1.12,0,0,0-.06-.15,1.81,1.81,0,0,0-.23-.37.16.16,0,0,0-.1-.17,12.83,12.83,0,0,0-1.49-.48l-.21,0-.24-.05-.31-.06-.13,0-.11,0-.47-.07H53l-.17,0c-.3,0-.6-.06-.91-.07h-.77a24.81,24.81,0,0,0-4.39.56L45.18,15l-.34.07-.32.07-.46.1c-.68.14-1.35.27-2,.37h0l-.22,0c-.46.05-.91.06-1.37.06h-.54l-.38,0-.26,0-.12,0-.17,0h-.07a3.45,3.45,0,0,0-.61.17l-.18.07,0,0-.08,0a3.27,3.27,0,0,0-.37.22,2.42,2.42,0,0,0-1.06,1.8,3.86,3.86,0,0,0,1.9,3.26,5.87,5.87,0,0,0,.8.48l.15.08h0a9,9,0,0,0,3.19.72,13.11,13.11,0,0,0,2.37,0l.53-.08.28-.05.16,0,.1,0a6.29,6.29,0,0,0,1.2-.43l0,0,.06,0h0a15.57,15.57,0,0,0,1.89-1.19,22.31,22.31,0,0,1,2-1.22,11,11,0,0,1,1.2-.55l.33-.13.14-.06.17-.07.27-.11.18-.08.24-.11.31-.15.34-.17.09,0Zm-.2-.24-.14.08-.27.14L54,18l-.14.07-.07,0-.31.14-.57.24-.19.08c-.5.21-1,.42-1.49.66-1.3.64-2.39,1.6-3.66,2.3a6.37,6.37,0,0,1-.78.36,7.25,7.25,0,0,1-1.08.33h-.06l-.1,0-.1,0-.08,0-.14,0h0l-.13,0H45l-.45.05h-.22l-.49,0H43.6l-.69,0h-.09A10.31,10.31,0,0,1,40.23,22,5.63,5.63,0,0,1,38.42,21c-1.1-.88-2.11-2.34-1.28-3.74a2.21,2.21,0,0,1,1.07-.93,4,4,0,0,1,1.13-.28l.21,0h.1l.47,0h1.74l.13,0h.13l.17,0,.28,0,.15,0,.58-.11.23,0,1-.2.5-.11.41-.09.44-.09a30.4,30.4,0,0,1,4.54-.72,13,13,0,0,1,5.43.78.15.15,0,0,0,0,.08h0a1.25,1.25,0,0,1,.22.38.86.86,0,0,1,0,.48,1.14,1.14,0,0,1-.08.23,2,2,0,0,1-.49.61h0l-.13.11-.06,0h0l-.08.06,0,0-.19.13-.11.07-.05,0Z"/><path class="cls-2" d="M52.86,17.67l.08,0c.22-.11.45-.22.68-.34l.25-.15.2-.13a2.68,2.68,0,0,0,.61-.58l0,0c.4-.58-.15-1-.69-1.18-1.28-.43-2.55.16-3.8.44a.15.15,0,0,0-.13,0c-.24,0-.48.08-.72.1l-.5.05-.73.07-.49,0h-.11l-.27,0-.33,0-.18,0L46,16h-.05l-1.25.13h0l-.21,0-.89.12c-.47.07-1,.15-1.42.25h0l-.36.09-.23.06-.06,0-.07,0h0l-.58.19A2.3,2.3,0,0,0,39.29,18c-.31.79.45,1.54,1,1.92a9,9,0,0,0,3.23,1.17,8,8,0,0,0,1.66.17,4.68,4.68,0,0,0,2-.51c1.12-.57,2.06-1.46,3.2-2l.72-.33.28-.12.17-.08.06,0,.08,0,.28-.12.34-.16.36-.17Zm.56-.63c-.36.21-.74.38-1.1.55l0,0-.42.19-.18.08-.07,0h0l-.06,0-.05,0-1.14.51c-1.1.51-2,1.35-3.07,1.92a4.42,4.42,0,0,1-2.14.59,9.12,9.12,0,0,1-1.67-.2,7.56,7.56,0,0,1-3.25-1.31c-.52-.43-1-1.17-.35-1.71A5.07,5.07,0,0,1,42,16.93l.34-.07.2,0h0l.4-.08h0c.72-.13,1.44-.22,2.16-.3l.18,0,.22,0,.24,0h0l.45,0h.17l.25,0H47l.44,0,.7-.06c.55,0,1.12-.08,1.67-.17A.15.15,0,0,0,50,16c.2,0,.41-.08.62-.14l.12,0,.09,0,.18-.05.06,0a4.8,4.8,0,0,1,2.77-.27c.21.07.64.19.71.44a.46.46,0,0,1-.16.41l-.1.1A4.52,4.52,0,0,1,53.42,17Z"/><path class="cls-2" d="M51.92,17l.25-.22a.15.15,0,0,0,0-.24,5.72,5.72,0,0,0-3.8,0l-.53.15-.41.12-.06,0-.46.14-.71.22-.29.09a10.89,10.89,0,0,1-1.48.33.12.12,0,0,0-.11.09.16.16,0,0,0-.17-.09l-.76.1a2.58,2.58,0,0,0-1.59.55.9.9,0,0,0-.19,1.15,2.53,2.53,0,0,0,1.24.83,5.42,5.42,0,0,0,1.75.35c1.59,0,2.68-1.07,4-1.79.54-.3,1.1-.56,1.65-.83l.07,0,0,0,.24-.12.18-.09.32-.17A5.94,5.94,0,0,0,51.92,17Zm-.44,0a9.36,9.36,0,0,1-1.08.61l0,0c-.6.3-1.22.58-1.81.91-1.21.65-2.33,1.82-3.78,1.83A5.11,5.11,0,0,1,43,20c-.42-.15-1-.38-1.24-.82s.38-.91.79-1,1.08-.17,1.62-.26a.12.12,0,0,0,.11-.09.17.17,0,0,0,.17.09A11,11,0,0,0,46,17.59l.55-.17.17-.05,1-.31L48,17l.18-.05.1,0,.08,0,.14,0,.54-.13.16,0a4.74,4.74,0,0,1,2.61,0Z"/><path class="cls-2" d="M47.69,17.92c-1.24-.44-2.21.51-3.3.92a.16.16,0,0,0-.1.19.12.12,0,0,0,.06.18c1.29.56,2.45-.19,3.4-1A.15.15,0,0,0,47.69,17.92Zm-.36.22a2.85,2.85,0,0,1-2.6.88C45.57,18.64,46.39,18,47.33,18.14Z"/><path class="cls-2" d="M61.05,44h0l-.08,0a18,18,0,0,1-2.72.45l-.28,0h-.22a28.13,28.13,0,0,1-3.86,0c-.72-.05-1.43-.13-2.15-.21h-.08l-.94-.12L49.82,44l-.23,0-.65-.09-.11,0h0l-1.32-.21-.24,0-.15,0h0l-.19,0h-.07l-.4-.07-.48-.09h-.06l-.71-.14-.09,0-1.92-.42h0l-.35-.08-.23-.06-.09,0-.3-.08-.53-.13h0l-.13,0-.12,0-.18,0-.26-.06-.12,0h-.13L39.85,42,39.57,42l-.09,0-1-.21-.43-.1h0l-.77-.22c-.25-.09-.51-.18-.75-.29h0a5.08,5.08,0,0,1-.86-.5l-.32-.22-.11-.09A1.39,1.39,0,0,1,35,40l-.06-.1a.16.16,0,0,1,.05-.21l.05,0a6.49,6.49,0,0,1,2.75-.9c.41-.05.81-.09,1.21-.12l.74-.06.56,0,.92-.08a10.4,10.4,0,0,0,1.25-.21l.1,0,.19,0h0l.11,0,.17,0,.49-.15L44,37.8l.08,0,.06,0,.1,0a33.78,33.78,0,0,0,3.25-1.45l1.19-.59L50,35l.11-.06.06,0,2-1,1.22-.62.61-.3.1,0q.7-.34,1.41-.65l.05,0,.06,0,.07,0,.55-.23.52-.2c.59-.22,1.19-.42,1.79-.59l.63-.16a13.88,13.88,0,0,1,2.13-.34h0V31h0a14.45,14.45,0,0,0-1.45.2l-.81.18c-.56.14-1.1.31-1.65.5l-.74.27-.26.1-.25.1-.17.07-.06,0-.2.09-.21.09-.21.1,0,0-.31.14-.14.07-.65.3-.82.4-.14.07-.38.19-.35.18-.11.06-1.12.58-.28.15-.13.07c-.81.42-1.62.84-2.43,1.25s-1.62.8-2.45,1.16h0l-.53.23-.32.13-.41.16-.05,0a16.79,16.79,0,0,1-2,.63h-.06l-.28.06a17.5,17.5,0,0,1-2.11.23,15.08,15.08,0,0,0-3.81.53h0a5.16,5.16,0,0,0-.59.24l-.41.23,0,0a1.8,1.8,0,0,0,.35.31l.14.09.22.15a4.29,4.29,0,0,0,.87.44h0L37,41l.09,0a11.5,11.5,0,0,0,1.12.34l.09,0,.12,0,.61.14c.67.15,1.34.27,2,.43l.12,0,.66.16.08,0,.64.16.18,0,.32.08.06,0,.67.16c1.27.29,2.55.53,3.83.75l.21,0h0l1.63.26.28,0,.33.05h.13l1.64.22h.06l1.41.15h.1l.35,0,.85.06.75,0h.39c.41,0,.82,0,1.22,0l.85,0H58q.81-.06,1.62-.2l.65-.12.08,0,.94-.23h0V44h0l-.13,0Z"/><path class="cls-2" d="M58.74,42.8l-.42.06-1,.1h-.12c-.84.05-1.69.06-2.52,0-1.07,0-2.15-.09-3.23-.18h-.12l-.19,0c-2-.17-3.94-.43-5.89-.75l-.11,0h0L45,42h0l-.24,0-.15,0h0L43,41.65q-.95-.19-1.89-.41l-.14,0-.26-.06-.21-.05-.37-.1L40,41c-.69-.18-1.37-.38-2.05-.6h0a.16.16,0,0,1-.09-.07.17.17,0,0,1,0-.1.13.13,0,0,1,.07-.1L38,40l0,0a4.56,4.56,0,0,1,.73-.25l.12,0,.07,0h.2l.26,0h.06l.14,0,.28,0h0l.51,0h.8l1.05,0h1.55c.24,0,.48,0,.71-.09h.1l.15,0,.17,0A7.38,7.38,0,0,0,46.22,39l.21-.1.06,0,.59-.32.25-.15h0l.26-.16c.65-.42,1.27-.9,1.88-1.37l.8-.61c.26-.2.53-.39.8-.57s.61-.39.92-.58L52,35l.24-.14c.58-.33,1.18-.64,1.79-.93l0,0,.17-.08.11-.05.11-.05.18-.09.75-.32.67-.26.32-.12a12.23,12.23,0,0,1,4.8-.84h0v.3h0a12.69,12.69,0,0,0-5.3,1.05l-.44.17-.41.17-.2.09-.67.31h0l-.14.07-.15.08-.21.1-.12.06-.59.31q-.83.45-1.62,1l-.61.41-.58.42,0,0-.2.15c-.63.48-1.25,1-1.91,1.43l-.37.25-.09.06-.11.07-.08,0-.09.05-.07,0-.2.11-.11.06-.36.18a8.34,8.34,0,0,1-1.28.49,6.74,6.74,0,0,1-.71.16h-.06a9.33,9.33,0,0,1-1.44.12H41.91l-.59,0c-.36,0-.71,0-1.06,0h0a7.2,7.2,0,0,0-1.06.12l-.09,0-.14,0a4.24,4.24,0,0,0-.47.14h0c.54.17,1.09.32,1.63.47l.16,0h0q.77.2,1.54.37c.73.16,1.47.31,2.21.45h.05l.13,0c.71.13,1.42.24,2.13.34h.07q1.08.16,2.17.28l2,.23.37,0,.17,0h.38c1.08.1,2.16.17,3.24.19h1.25l.47,0h0l.89-.05.79-.08A13.27,13.27,0,0,0,61,41.95l.07,0h0l.14,0h0v.33h0a13.2,13.2,0,0,1-2.32.58Z"/><path class="cls-2" d="M60.87,40.42l-.09,0a23.84,23.84,0,0,1-3.55.9l-.4.06-.37,0h-.12l-.25,0-.22,0h0l-.8,0a15.77,15.77,0,0,1-1.89-.07h-.09l-.72-.08h-.08l-.28,0h0l-.5-.07L50,41.12l-.52-.06-1-.07h-1c-.43,0-.86,0-1.29,0a8.31,8.31,0,0,1-.84-.08L45,40.81a.15.15,0,0,1-.11-.17.13.13,0,0,1,.11-.13h0l.25,0a9.21,9.21,0,0,0,1.16-.33,10.69,10.69,0,0,0,2.1-1l.34-.22.08-.05.32-.22.21-.15.65-.49,1.39-1.1.18-.13,0,0q.4-.31.82-.59l.64-.42a10.12,10.12,0,0,1,2.84-1.17,12.92,12.92,0,0,1,2.46-.35h.07a18.73,18.73,0,0,1,2.19,0h.49v.3h-.14l-.2,0h-.18c-.55,0-1.11-.06-1.66-.06h-.61l-.43,0h-.32c-.3,0-.59.08-.88.13l-.1,0-.08,0A10.7,10.7,0,0,0,53.39,36l-.19.12c-.25.16-.5.32-.74.5l-.31.23-.08.06c-.47.35-.93.72-1.39,1.09l-.34.27-.82.62,0,0A12.41,12.41,0,0,1,47.66,40a9.9,9.9,0,0,1-1.59.62h0l-.15,0h1.62l.94,0h.3c.41,0,.82.06,1.24.11l.81.1a27.49,27.49,0,0,0,4.23.35l.71,0h.15l.19,0,.45-.05h.08a19.67,19.67,0,0,0,2.68-.55q.71-.19,1.4-.43l.17-.06L61.1,40h0l.15-.05h0v.32h0l-.33.11Z"/><path class="cls-2" d="M60.84,39.61a11.9,11.9,0,0,1-2.77.82l-.19,0-.12,0-.22,0h-.15l-.15,0-.21,0H57c-.36,0-.72.05-1.09.05h-.42a11.91,11.91,0,0,1-2.79-.4l-.22-.06-.31-.09L52,40l-.25-.09-.59-.24,0,0a.17.17,0,0,1,0-.16,2.28,2.28,0,0,1,.37-.8,3.63,3.63,0,0,1,.27-.34l.06-.07.06-.06L52.1,38h0l.24-.2.44-.33a11.09,11.09,0,0,1,1.15-.71h0l.15-.08.15-.08.16-.08.23-.11.35-.16.63-.27.56-.21.54-.18.17-.05.08,0h0l.08,0,.25-.07.07,0,.43-.1q.63-.14,1.27-.23A11.86,11.86,0,0,1,61.25,35h0v.31h0a12.51,12.51,0,0,0-1.93.05h-.15q-.51.06-1,.17h0l-.13,0c-.29.06-.57.13-.85.21l-.32.09-.13,0-.16.05-.11,0-.63.23-.52.21-.24.1-.11.05a14,14,0,0,0-1.83,1l-.16.11c-.17.11-.34.24-.5.37a4.25,4.25,0,0,0-.5.46,2.41,2.41,0,0,0-.55.91l.24.1a10,10,0,0,0,1,.34l.15,0h0L53,40l.53.12a12.7,12.7,0,0,0,3.55.15h.38a12.27,12.27,0,0,0,1.82-.36h0l.16,0h0l.07,0,.12,0h0l.12,0,.34-.12.11,0,.06,0q.41-.16.81-.36l.12-.06,0,0v.34l0,0-.06,0Z"/><path class="cls-2" d="M61.22,38.06l-.35.15-.68.29q-.6.26-1.22.47l-.09,0-.22.07a12.37,12.37,0,0,1-1.59.41H57l-.08,0h-.09a3.43,3.43,0,0,1-1.43,0l-.14,0-.09,0h0l-.09,0-.16-.11,0,0a.72.72,0,0,1-.21-.83A1.14,1.14,0,0,1,55,38l.07-.06a3.4,3.4,0,0,1,.47-.3l.07,0,.09,0a8.52,8.52,0,0,1,1-.39,17.73,17.73,0,0,1,2-.54l.4-.08.12,0,.35-.06h.14l.1,0h0c.48-.08,1-.15,1.44-.2h0v.3h0l-.16,0H61a24.49,24.49,0,0,0-3.06.57c-.37.09-.75.19-1.12.31h0l-.09,0-.1,0-.31.12a5.77,5.77,0,0,0-.76.36l-.13.07a1.43,1.43,0,0,0-.46.43.45.45,0,0,0,.19.68,1.12,1.12,0,0,0,.3.13l.31.05H56a5.46,5.46,0,0,0,.6,0h.1a11.5,11.5,0,0,0,2.13-.54l.17-.06.32-.12a4.19,4.19,0,0,1-.64-.05h0a1.35,1.35,0,0,1-.46-.16l0,0,0,0,0,0a.35.35,0,0,1-.08-.38.54.54,0,0,1,.11-.18,1,1,0,0,1,.21-.18,3.06,3.06,0,0,1,.36-.19l0,0,.33-.15,0,0a8.69,8.69,0,0,1,1.15-.36,7.78,7.78,0,0,1,1-.17h0v.31h0l-.38,0a7.35,7.35,0,0,0-.81.18l-.38.11-.24.08-.09,0-.11,0a4.5,4.5,0,0,0-.57.25,2.31,2.31,0,0,0-.29.19c-.16.13-.09.21,0,.27l.16.05h0l.07,0,.07,0a2.66,2.66,0,0,0,1,0h.05l.28-.05.16,0,.11,0h0l.21-.07h0l.21-.1.11-.06,0,0,.06,0h0l.21-.11,0,0V38h-.06Z"/><path class="cls-2" d="M56.84,52a7.38,7.38,0,0,0-1.15.6c-.18.12-.36.24-.54.38l.29.23.23.15.31.18.22.12c.28.15.58.27.87.39l.2.07.11,0,.33.12.05,0h0l.17.06,1,.3.49.14.4.11.08,0,.5.12.22.05.25.06.27.06c.19,0,.11.34-.08.29l-1.11-.26-.3-.08L59,55l-.07,0-.48-.15-.73-.24-.4-.14-.16-.06-.29-.11,0,0-.1,0-.23-.1a6.83,6.83,0,0,1-1.27-.72L55,53.24l-.18-.15a.14.14,0,0,1,0-.06.17.17,0,0,1,0-.08.13.13,0,0,1,0-.07l.28-.22.36-.25,0,0,.36-.22a8.06,8.06,0,0,1,1.85-.77l.22-.06a10.46,10.46,0,0,1,2.63-.3l.72,0h0v.3h0l-.65,0A9.31,9.31,0,0,0,56.84,52Z"/><path class="cls-2" d="M60.82,54.71h0l-.09,0-.06,0a12.18,12.18,0,0,1-1.43-.56L59.1,54l-.18-.1-.29-.19-.15-.12a1.7,1.7,0,0,1-.22-.21.71.71,0,0,1-.18-.69.73.73,0,0,1,.08-.16l0-.06a.73.73,0,0,1,.16-.16l.1-.07.09,0,.12,0a1.89,1.89,0,0,1,.6-.07h.14a6.37,6.37,0,0,1,.75.1,11,11,0,0,1,1.09.25h0v.32h0a9.2,9.2,0,0,0-1.56-.33c-.37,0-1.7,0-1.25.7a1.54,1.54,0,0,0,.63.52l.45.21.11,0,.65.26c.32.12.65.22,1,.32h0v.32h0L61,54.78Z"/><path class="cls-2" d="M60.63,54.12l0,0-.07,0a2.65,2.65,0,0,1-.45-.23.15.15,0,0,1,0-.26,2.18,2.18,0,0,1,1.18-.17h0v.31h0a2,2,0,0,0-.73,0,2.92,2.92,0,0,0,.73.22h0v.31h0A3.31,3.31,0,0,1,60.63,54.12Z"/><path class="cls-2" d="M10,59.36l.06,0,.13-.06h0l.1,0,.17-.08.12-.06,0,0,.09,0c.78-.36,1.58-.7,2.38-1h0l.06,0,0,0,.05,0,.05,0,1.85-.77.88-.36.2-.08.38-.15.73-.29.43-.17h0l.67-.25.24-.09h0l.11,0,.08,0,.28-.1.69-.23h0l.32-.1.05,0L21,55h0l.08,0,.14,0,.08,0,.35-.11h0l.09,0,.07,0h0l.07,0,1.93-.57.12,0,.09,0,1.07-.32.28-.09.08,0,.29-.1a8.23,8.23,0,0,0,1.25-.57c.28-.16.66-.42.7-.77a.56.56,0,0,0,0-.14.81.81,0,0,0-.06-.21,1.11,1.11,0,0,0-.16-.25,1.86,1.86,0,0,0-.32-.3L27,51.06l-.2-.11-.16-.07a5.66,5.66,0,0,0-2.21-.37h-.92l-.39,0-.35,0h-.1c-1.52.15-3,.41-4.53.7-.74.15-1.47.31-2.21.48l-3.42.82-1,.24h0l-1.24.35-.24.07c-1,.3-2,.63-2.94,1l-.36.13c-1.65.61-3.28,1.27-4.9,2l-.08,0-.21.09-.11,0-.06,0-.12,0-.08,0L0,57.17v-.31l.07,0,.49-.21.09,0L1,56.44l.13-.06.17-.07.36-.15h0L2,56l0,0,.08,0c1-.41,1.92-.81,2.89-1.19l.51-.2.25-.1.11,0c1.44-.56,2.9-1.07,4.38-1.51.65-.19,1.3-.37,2-.54h0l.36-.09h0l1-.23h.06l.23-.05h0l.19,0,.35-.08.13,0h0l.18,0,.1,0,.07,0,.23-.05h0l.31-.07h.05l.23-.05h.06l.23-.05.19,0,.43-.09.1,0,.08,0,.13,0,.69-.14,1.5-.28.38-.06h0l.73-.12.8-.13,1.29-.18,1-.09H24c.35,0,.71,0,1.06,0a6,6,0,0,1,1.51.26h.11l.08,0,.13.05a2.82,2.82,0,0,1,.58.33h0l.12.09a2.17,2.17,0,0,1,.45.54h0l.06.11,0,.08a1,1,0,0,1,0,.17.91.91,0,0,1,0,.11c0,.61-.77,1.06-1.29,1.3a25,25,0,0,1-3.49,1.18l-2.62.79-.12,0,0,0h0l-.41.13h0l-.78.26h0l-.63.22-.09,0-.07,0,0,0-.07,0-.55.21-.53.21-.42.17-.48.2-1.19.5-.08,0h0l-.06,0-.18.07-.18.07-.1,0-.07,0,0,0-.18.07,0,0-.08,0-.41.17-.18.07-.7.29-.43.18-.24.1-.41.17h0l-.06,0-.23.1-.34.15-.2.09-.13.06-.06,0-.19.09,0,0q-1.65.79-3.23,1.74l-.15.09-.06,0H6.56l.06,0L8,60.44C8.62,60.05,9.29,59.7,10,59.36Z"/><path class="cls-2" d="M9.54,58.57l.06,0,.09,0,.28-.14.07,0,.17-.08.54-.26.12-.06.12-.06.52-.25h0l.85-.4,1.39-.67.35-.17.31-.16.4-.21q.7-.36,1.38-.74a4.19,4.19,0,0,0,1.3-1l0-.05,0-.06a.48.48,0,0,0,.06-.17c0-.33-.38-.54-.7-.64a4.66,4.66,0,0,0-.82-.15h-.51a7.32,7.32,0,0,0-.93,0c-.28,0-.57.07-.85.13l-.78.16-.14,0-.18,0-.07,0-.37.1h0l-.2.06h0l-.43.12-.87.28c-.83.28-1.65.6-2.47.92l-.39.15-.13.05-.26.11c-1.8.72-3.6,1.44-5.38,2.21l-.25.11-.13.06-.06,0,0,0-.17.07-.09,0h0l-.29.12-.25.11L0,58.58v-.33l1-.46.09,0,.09,0,.73-.32,0,0,.13-.06.16-.07.31-.13.11,0L2.88,57l.23-.1.1,0,1.26-.52.06,0,.06,0,2.79-1.14.07,0,.44-.18.08,0c.81-.32,1.62-.64,2.45-.92q.64-.22,1.29-.41l.07,0,.13,0,.69-.18h0A13.24,13.24,0,0,1,14.7,53h.13l.28,0a7.6,7.6,0,0,1,1.52.08,1.74,1.74,0,0,1,1.21.59l.06.12a.67.67,0,0,1,0,.5l-.07.14a1.56,1.56,0,0,1-.19.26,5.15,5.15,0,0,1-1.35,1c-.45.25-.92.48-1.37.72l-.1.05-.05,0-.26.13-.07,0-.16.08-.44.22L13.5,57h0l-1.73.83-.06,0-.09,0h0l-.34.16-1.4.66c-1.57.74-3.14,1.51-4.64,2.4l-.15.09-.06,0H4.44l.06,0A48.2,48.2,0,0,1,9.27,58.7Z"/><path class="cls-2" d="M3.06,61.22l.14-.08.06,0,0,0q.71-.38,1.4-.8a15.75,15.75,0,0,0,2.07-1.46,4.42,4.42,0,0,0,1.16-1.34,8.32,8.32,0,0,0-5,1l-.22.1-.4.19h0l-.48.25h0l-.64.35h0L0,60.07v-.35c.52-.29,1-.59,1.56-.86h0l.1-.06,0,0,.14-.07h0l.31-.16.23-.12,0,0,.28-.13c1.65-.77,3.59-1.49,5.43-1a.15.15,0,0,1,.11.19,4.17,4.17,0,0,1-1.15,1.49,14.49,14.49,0,0,1-2.08,1.51q-.69.43-1.41.82l-.06,0H2.94l.06,0,0,0Z"/><path class="cls-2" d="M5.79,41.68,6,41.62l.31-.08c1.85-.47,3.71-.91,5.59-1.27H12l.26,0h.17l.68-.11.42-.06.9-.11.72-.07h.13q.83-.06,1.65-.06h.74a35.34,35.34,0,0,1,5.12.59l1.06.22,1.1.27.13,0,.14,0,.1,0h.05l1,.32.46.16.7.27.22.09,0,0,.18.08.2.09.31.14.11.05.13.06h0c.27.13.55.27.81.42l.07,0,.51.3.22.14.14.09.19.12,0,0,.09.06.54.41a7.91,7.91,0,0,1,.77.7,5.16,5.16,0,0,1,.67.86l.11.2.05.09a2,2,0,0,1,.14.35,1.34,1.34,0,0,1,.05.33.89.89,0,0,1,0,.27.84.84,0,0,1,0,.13.88.88,0,0,1-.23.29,1.68,1.68,0,0,1-.78.32,4.68,4.68,0,0,1-.8.06h-.42l-.93-.06h-.56l-.85,0-.75,0H26.51c-1.53,0-3.06.13-4.59.25h-.09l-.21,0-.64.05-2.09.18h0l-.64.06-.4,0h-.16l-.15,0h-.08L17,48h-.2l-.2,0-.68.09-.82.11L14,48.43h-.09l-.29,0-1,.18-.39.07q-.82.16-1.62.36l-.17,0-.64.18-.15,0h0l-.85.28,0,0-.31.11c-.71.26-1.41.55-2.1.86l-.09,0h0l-.13.06-.26.12h0l-1.56.76-.31.15-1.35.69c-.84.44-1.69.88-2.54,1.3v-.34l2.4-1.23.27-.14.91-.47,1.46-.72.63-.3.16-.08c.44-.2.89-.4,1.34-.58l.5-.2.68-.25.94-.31q1.12-.34,2.26-.59l.39-.08.17,0c.54-.11,1.07-.21,1.62-.3.81-.13,1.62-.25,2.44-.35l1.32-.15L18,47.6h.14l.79-.08A77.53,77.53,0,0,1,29.18,47h1l.29,0h.21l.55,0h.35a3.94,3.94,0,0,0,.57-.07,1,1,0,0,0,.61-.33.58.58,0,0,0,.1-.22.71.71,0,0,0,0-.12.8.8,0,0,0,0-.1,1.07,1.07,0,0,0,0-.16,1.33,1.33,0,0,0-.05-.17,2.08,2.08,0,0,0-.19-.37,4,4,0,0,0-.29-.39L32.12,45c-.13-.15-.27-.3-.42-.44a9.12,9.12,0,0,0-.91-.76l-.2-.15-.38-.26L30,43.27l-.09-.06-.33-.2-.4-.23h0l0,0-.41-.21-.08,0-.4-.19c-.29-.13-.59-.26-.9-.38l-.63-.23-.16-.06-.14,0-.14,0-.05,0h0l-.6-.19h0l-.14,0-.27-.07-.35-.09-.12,0L24.38,41c-.48-.12-1-.22-1.44-.31h0l-.14,0-.11,0h0l-.57-.1-.8-.13-.28,0-.18,0q-1.51-.2-3-.27a25.65,25.65,0,0,0-5.91.5c-2,.38-4,.84-6,1.37l-.53.14L4,42.49q-.76.22-1.51.47l-1.18.42-.48.18-.31.12-.05,0-.07,0h0L0,43.86v-.32l.09,0,.33-.13.06,0,.06,0,.07,0h0l.1,0c.5-.19,1-.36,1.5-.53l.1,0,.05,0q.93-.31,1.87-.58l1.13-.32Z"/><path class="cls-2" d="M3,43.37l0,0,.07,0q1.35-.48,2.73-.85l.35-.09.24-.06.18,0,.19,0L7.89,42a24.92,24.92,0,0,1,2.5-.36h0l.22,0h.46c.67,0,1.34-.06,2-.06h.68l1.49,0h.25l.75,0h.43l.2,0h0l.23,0q.81.07,1.62.18t1.38.22q.8.15,1.59.33h.07c.66.16,1.31.33,2,.51l.56.17.67.23.08,0,.41.16.21.09.59.27.13.07h0l.17.09.15.09.21.14h0l.17.14,0,0a1.19,1.19,0,0,1,.17.19.61.61,0,0,1,.1.22.37.37,0,0,1,0,.1.44.44,0,0,1,0,.16l-.05.09a1.76,1.76,0,0,1-1.12.5,4.75,4.75,0,0,1-.56.07,6.93,6.93,0,0,1-.73,0c-.36,0-.71,0-1.06-.08a19,19,0,0,0-2.48-.16l-.49,0h-.09l-.27,0h-.07l-1.08.12q-2,.21-4,.54l-.19,0c-.71.12-1.43.25-2.14.39s-1.26.27-1.89.42-1.33.33-2,.52l-.5.15-.28.09-.56.18-1.3.44-.48.18c-.44.16-.87.34-1.3.52A25,25,0,0,0,1.29,51q-.63.4-1.22.83l0,0v-.37H0l.05,0,.08-.06a23.85,23.85,0,0,1,4-2.28l.18-.08.32-.14.12-.05.72-.29c.42-.17.84-.33,1.27-.48s1-.33,1.48-.49l1-.28.73-.2h0l.09,0q.91-.24,1.83-.44l.79-.17h0l.1,0,1.19-.24q1.34-.25,2.69-.44l1-.14.44-.05.28,0h.07q1.28-.15,2.56-.26h.27a12.19,12.19,0,0,1,1.71.07h.27l.51.05H24l.17,0h.3a9.55,9.55,0,0,0,1.08,0h0l.48,0a3.2,3.2,0,0,0,.92-.2.46.46,0,0,0,.28-.26h0c0-.09,0-.19-.14-.27l-.17-.14-.1-.06-.1-.06-.08,0-.37-.21-.09,0-.07,0h0l-.32-.15c-.26-.12-.53-.22-.8-.31l-.13,0-.07,0L24,43.33l-.88-.26q-.86-.24-1.72-.43l-.33-.07-.54-.11-1.11-.19-.61-.09h-.13C18.12,42.09,17.57,42,17,42l-.46,0h-.38q-1.23-.08-2.47-.09H12.14a27.44,27.44,0,0,0-2.85.23l-.12,0-.88.14-.15,0h0q-1.32.25-2.6.61h0L5,43l-.07,0L4,43.33l-1.19.42-.27.1-.08,0Q1.25,44.36,0,44.93v-.34c.73-.34,1.48-.66,2.23-.95Z"/><path class="cls-2" d="M6.43,43.41l.71-.13.12,0h0c1.3-.22,2.61-.38,3.92-.53a12.35,12.35,0,0,1,3-.05l.5.09a2.53,2.53,0,0,1,1.15.58.7.7,0,0,1,.22.45.62.62,0,0,1-.09.33,1.57,1.57,0,0,1-.83.56l-.32.11-.32.09h-.05l-.23.06-.33.07-.18,0-.93.18H12.7l-.83.16-.72.17-.25.07-.27.08-1.68.51-1,.32q-.78.27-1.55.56l-1.12.45L4.37,48,4,48.17l-.9.44-.22.11A20.73,20.73,0,0,0,0,50.5v-.38a21.87,21.87,0,0,1,3.43-2l1-.46,0,0,.16-.07,1.05-.44h0l.07,0,.62-.24.21-.08.14-.05.08,0,.06,0,.07,0,1-.35.12,0h0l1.54-.49.91-.27.35-.1.14,0,.17,0,.29-.07h.06c.57-.12,1.14-.22,1.71-.33l.41-.08a9.43,9.43,0,0,0,1.19-.31l.11,0,.12,0a1.33,1.33,0,0,0,.6-.39.27.27,0,0,0,0-.18.64.64,0,0,0-.29-.41l-.1-.06a2.35,2.35,0,0,0-.51-.22l-.13,0a6.46,6.46,0,0,0-1.57-.16h-.1A20.66,20.66,0,0,0,10,43.2l-.51.08-.13,0-.12,0-.14,0-.25,0-1.54.22-.23,0-.32.06-.09,0h0l-.09,0h0l-.37.07-.12,0L5.17,44l-.48.12h0l-.49.12a20.59,20.59,0,0,0-2.09.67c-.35.14-.71.29-1.06.46l-.34.17-.1.06-.1.06L0,45.93v-.35l.14-.09.24-.14.08,0,.07,0,.34-.18a18,18,0,0,1,3.69-1.28l.7-.16Z"/><path class="cls-2" d="M60.09,49.14c-.36.06-.73.1-1.09.13-.68.06-1.36.08-2,.18l-1.14.15-.8.09h-.12l-.21,0-.6.05q-1.17.1-2.32.12H50.58q-1.16,0-2.33-.17h-.09l-.24,0-.23,0-1.5-.2-2-.3h0l-.12,0-1.22-.21-1.21-.24-.46-.09-.35-.08h-.08l-.24-.05L38.91,48h-.07L38,47.8l-.44-.13-.33-.1L37,47.49c-.29-.09-.57-.21-.86-.29l-.17,0a3.91,3.91,0,0,1-.7-.21.15.15,0,0,1,0-.25l.05,0a7.75,7.75,0,0,1,1.3-.3l.34,0a10.92,10.92,0,0,1,1.61,0h0l.66,0h.17l.88.1h0l.17,0h0l.15,0h.19l.47.07.34.05.17,0h0l.19,0,.42.07h0l.4.06h0l.69.11.18,0,2.85.44h0l.18,0c1.4.2,2.81.38,4.23.47.55,0,1.1.06,1.65.06s.9,0,1.36,0l.44,0h.06l.39,0h0l.25,0,.33,0h0l.46,0c.81-.07,1.61-.17,2.41-.26l.6-.07c.73-.08,1.47-.16,2.2-.23h0v.31h-.15c-1,.09-2.06.21-3.08.33H58l-.69.07h0l-.85.09h0l-1,.09-.94.06h-.31l-.71,0H51.26c-.75,0-1.5-.12-2.24-.2s-1.4-.18-2.09-.27l-.25,0h-.09l-.43-.06-1.4-.21-.63-.1h0L41.7,47,41,46.87l-.81-.12-.23,0-.44-.05a12.33,12.33,0,0,0-2.57,0l-.27,0a7.92,7.92,0,0,0-.85.16l.1,0a4.07,4.07,0,0,1,.41.11l.15.06h0a9.83,9.83,0,0,0,1.3.4h0l.91.25q.86.22,1.73.42,1.1.25,2.21.45t2.4.41l.84.13,1.63.22c.83.11,1.66.19,2.49.24l1.08,0h.55l.71,0,.63,0h.16c.56,0,1.13-.09,1.69-.15l.16,0,.17,0h0l.17,0,.78-.09h.05l.2,0,.16,0h0l.33,0h0l.17,0h.19l.3,0h.09c.52,0,1.08-.06,1.64-.11h.06l.6-.08h0l.31-.06a4.44,4.44,0,0,0,.85-.27h0v.32h0l0,0A6,6,0,0,1,60.09,49.14Z"/><path class="cls-2" d="M59.83,23q-.91.42-1.8.87l-.32.16-.14.07-.18.09,0,0-.09,0-.4.21,0,0-.94.51-.16.09-.59.32-.09,0-.18.1-.68.38L54,26l-.66.37L52,27.13c-.65.35-1.3.71-2,1-1,.5-1.93,1-2.92,1.4s-1.76.74-2.67,1l-.06,0h0l-.16.05h0l-.08,0-.14,0q-.79.26-1.6.46l-.07,0h-.05l-.16,0-.1,0-.17,0-.14,0-.2,0h0l-.33.07-.16,0h-.07l-.57.1a21.34,21.34,0,0,1-3.93.26h-.17a19.94,19.94,0,0,1-3.33-.41l-.2,0-.21,0-.16,0-.11,0-.1,0-.12,0-.27-.07-.21-.06L31.15,31l-.34-.1q-.82-.25-1.62-.56L28.12,30l-.58-.25-.26-.12-.64-.29-.13-.06h0l-.67-.32-.16-.08-1.27-.64h0l-.09,0-.07,0L24.07,28l-.36-.19-2.09-1.12-.19-.1-.25-.13-.07,0c-1.39-.75-2.77-1.5-4.19-2.19L16.31,24l-.74-.33a21.36,21.36,0,0,0-2.83-1l-.67-.17-.25-.05-.31-.06h0l-.16,0-.12,0-.16,0-.13,0h-.14c-.28,0-.56,0-.84-.06H9.1l-.28,0a17.92,17.92,0,0,0-2.93.59l-.13,0-1.06.29-.28.08h0l-.41.1c-.36.09-.73.18-1.09.25A26,26,0,0,0,0,24.35V24c.63-.2,1.26-.38,1.89-.54.93-.24,1.87-.42,2.79-.66l.1,0,.1,0,.12,0,.73-.2h0c.66-.17,1.31-.34,2-.46l.13,0,.3-.05h.1l.26,0h0A9.58,9.58,0,0,1,9.7,21.9h.86l.23,0,.57.07.18,0,.09,0,.31.06h0l.68.16.44.12.05,0,.21.06.35.11.22.07.16.06.21.08.08,0,.06,0,0,0,.1,0h0c.78.3,1.55.65,2.31,1l.87.44c.7.36,1.39.73,2.06,1.09l1.82,1,.21.11.23.13,2,1.08.4.21,1.51.75.89.42.27.12.37.16.59.25.1,0,.92.36c.66.25,1.33.48,2,.68l.63.18L32,31l.08,0,.39.1a20.26,20.26,0,0,0,4.51.55h.55a19.75,19.75,0,0,0,3-.3l.58-.11.4-.09.1,0,.1,0q.73-.17,1.44-.38l.32-.09.08,0h0c.74-.23,1.46-.48,2.18-.77l.13-.05.13-.05c1.18-.47,2.33-1,3.47-1.59.72-.36,1.42-.74,2.13-1.12l1.25-.69.54-.3.36-.2.87-.49.26-.15h0l.09-.05,0,0h0l.35-.19,1.33-.72.15-.08.27-.14,0,0,.09,0,.07,0,.08,0,.27-.14.14-.07L58,23.5l.19-.09,1.22-.59.07,0h0l1.11-.51.23-.1.41-.18,0,0v.33h0Z"/><path class="cls-2" d="M2.28,6.18l.2.16.08.06.23.18c.63.5,1.27,1,1.92,1.48S5.95,9,6.58,9.42L7,9.74l.44.29.3.2.92.57,0,0,.09.06.32.18.15.09c.55.31,1.11.61,1.68.88a17.63,17.63,0,0,0,2.37.92l.16,0,.21.06.14,0,.07,0,.28.08h.07c.65.17,1.3.32,2,.45l.54.1.18,0,.5.09h0l.39.07,1.07.17h0l.17,0h.08l.12,0,.19,0h.16l.23,0,.21,0,.14,0c.59.09,1.19.17,1.79.21,1.8.13,3.62,0,5.42.24l.26,0,.13,0h0A8.18,8.18,0,0,1,31.06,16l.16.11a5,5,0,0,1,.64.52l.26.28a3.7,3.7,0,0,1,.29.37l.09.13.06.11a2.82,2.82,0,0,1,.37,1.3c0,.1,0,.19,0,.29s0,.1,0,.15a2.91,2.91,0,0,1-.09.41,2.7,2.7,0,0,1-.39.83,2.2,2.2,0,0,1-1.21.78l-.09,0a6.83,6.83,0,0,1-3.1-.1l-.28-.06-.95-.23-.88-.23-.16,0h0l-.43-.12-.36-.11c-1.34-.39-2.66-.82-4-1.24l-.87-.27c-.61-.19-1.23-.37-1.84-.53l-.3-.08-.06,0-.16,0q-.75-.19-1.5-.35l-.58-.11-.84-.14-.25,0-.42-.05h0l-.31,0-.49,0h-.18l-.29,0H11.45l-.41,0-.35,0h-.15a22.12,22.12,0,0,0-2.65.39L7,18l-.59.15h0l-.12,0-.06,0L6,18.31H6l-.58.17-.32.1-.12,0h0L3.84,19A25.05,25.05,0,0,0,1,20.29l0,0-.06,0L0,20.8v-.35l.16-.09a25,25,0,0,1,3-1.43q.56-.22,1.12-.42l.22-.07,1.16-.36L5.93,18H6l.62-.16h0l.1,0,.06,0,.12,0,1-.23c.57-.12,1.14-.21,1.71-.28l.45-.05a18.58,18.58,0,0,1,2.63-.09,20,20,0,0,1,2.36.24l.15,0h0c1,.16,1.9.38,2.83.62l.11,0h0l.8.22.35.1h.05l1.1.33h.07l1.21.38c1.28.4,2.55.81,3.84,1.18l.44.12h0l.08,0h0l.39.1.12,0,.19,0h0l.11,0h0l.07,0,.77.18.37.08.4.08a5,5,0,0,0,2.78-.15,1.88,1.88,0,0,0,1-1.24,2.69,2.69,0,0,0,.07-.29c0-.07,0-.14,0-.21a.25.25,0,0,0,0,0c0-.07,0-.13,0-.2a2.58,2.58,0,0,0-.24-1.1,3,3,0,0,0-.16-.29l-.06-.09a3.51,3.51,0,0,0-.29-.36l-.16-.17-.14-.13h0l-.1-.08a5.37,5.37,0,0,0-.78-.54,8.32,8.32,0,0,0-1.15-.55,11.07,11.07,0,0,0-3.67-.62h-.22l-.93,0c-1,0-1.92,0-2.89-.1-.4,0-.8-.08-1.19-.13h-.12l-.45-.07-.4-.06-.61-.09h0l-.19,0h-.07l-.13,0-.37-.06-.25,0H18l-.72-.12c-1.19-.21-2.37-.45-3.53-.77l-.41-.12L12.56,13A20.2,20.2,0,0,1,9.08,11.4l-.06,0-.93-.56-.89-.58L7,10.06l-.46-.32L5.5,9,4.32,8.15,2.72,6.91l-.09-.07L2.4,6.66l-.52-.41L1.5,5.94l-.24-.19L1.19,5.7,0,4.79V4.41L2,5.92Z"/><path class="cls-2" d="M1.85,10.39l.06,0,.11.07.18.11.47.27.08,0,.36.2.89.48.78.39.59.27.23.1.09,0,.51.21.54.21.34.12a26.57,26.57,0,0,0,2.59.77l.42.1.16,0,.23.05.79.16c.67.13,1.34.25,2,.35h0l.4.06.11,0,.14,0h0l.29,0,.16,0,.32,0,1.12.15h.06l1.23.15.54.07.78.1h0l.11,0,.59.08h0l.51.07.33,0h0l.19,0,2.62.38.68.11.69.12.4.08.88.2h0a9.41,9.41,0,0,1,2.38.88c.33.19.83.54.74,1a.6.6,0,0,1-.07.19.71.71,0,0,1-.14.16l-.09.07a1.38,1.38,0,0,1-.3.15l-.14,0-.1,0h-.06a3,3,0,0,1-.55.08h-.11a4.51,4.51,0,0,1-1.06-.12c-.34-.08-.67-.16-1-.26l-.93-.28L23.49,18l-2.6-.81-.84-.25H20a32.8,32.8,0,0,0-3.43-.82l-.13,0-.11,0h-.24l-.22,0-.19,0-.42-.05-.48,0h0l-.51,0H12.91l-.6,0-.53,0h-.21l-.73.06H10.5q-1.12.13-2.24.36a24.55,24.55,0,0,0-3.91,1.13h0l-.4.16-1,.45-.6.29A20,20,0,0,0,0,19.73v-.37a20.38,20.38,0,0,1,2-1.17c.31-.16.63-.32.94-.46l.45-.2.06,0a24,24,0,0,1,4.15-1.33L8.23,16c.51-.1,1-.19,1.53-.27s1.14-.15,1.72-.2h.18l.45,0h.27l.43,0h1.09l.4,0h.09l.47,0H15c.36,0,.72.08,1.09.13h.06c.84.13,1.68.31,2.51.51,1.74.44,3.45,1,5.16,1.55.85.26,1.7.55,2.57.73a3.41,3.41,0,0,0,1.3,0l.31-.08.09,0,.08,0h0c.56-.27.13-.69-.23-.92a8.45,8.45,0,0,0-2.53-.93l-.12,0-.08,0-.08,0-.1,0c-1.6-.36-3.23-.52-4.84-.77l-.9-.13-.44-.06-4.19-.54h-.09l-.18,0-.54-.08h-.06l-.11,0h-.11l-.15,0h-.23l-.26,0h0l-.14,0-.17,0h0l-.39-.07h0q-.78-.13-1.56-.3l-1-.24H9.41l-.1,0h0l-.46-.12A24.9,24.9,0,0,1,6,12.89l-.2-.08L5,12.45l-.2-.09L4.5,12.2l-.06,0-.17-.09,0,0,0,0-.46-.24-.87-.48L2.39,11l-.9-.55-.05,0-.11-.07L.65,10,.57,9.91.44,9.83.27,9.71.15,9.63,0,9.56V9.21l1.08.71Z"/><path class="cls-2" d="M2.53,12.77l1,.45.24.12.07,0,.7.36.1.06.33.2,0,0a2,2,0,0,1,.37.32,1,1,0,0,1,.26.55.81.81,0,0,1-.25.64l-.05.05,0,0a3.57,3.57,0,0,1-.62.44A9.9,9.9,0,0,1,3,16.79l-.4.15-.05,0-.09,0a11.82,11.82,0,0,0-1.74.81,6.66,6.66,0,0,0-.7.47v-.39l.11-.07,0,0,.05,0A8.25,8.25,0,0,1,1.62,17l.64-.26.23-.09.14-.05.77-.3a7.09,7.09,0,0,0,1.3-.6l.18-.13L5,15.44a1.46,1.46,0,0,0,.21-.27c.23-.38-.17-.73-.52-1l-.22-.14,0,0-.07,0-.06,0-.06,0-.51-.27-.05,0-.2-.1-.2-.09-.12-.06L3,13.35l-.58-.27c-.57-.27-1.16-.55-1.77-.79l-.37-.14L0,12v-.32c.26.08.52.18.78.28l.67.28Z"/><path class="cls-2" d="M2.91,16.09l-.08.06,0,0-.08.05-.27.17-.22.11C1.51,16.86.7,17,0,17.39V17a11,11,0,0,1,1.57-.59h0l.17-.06L2,16.3l.29-.15,0,0,.08,0h0l.07,0L2.57,16a2.67,2.67,0,0,0,.29-.24l.09-.1a.41.41,0,0,0,.1-.45c-.22-.43-1-.58-1.42-.7S.56,14.22,0,14.05v-.32c.61.2,1.24.31,1.85.49s1.19.33,1.45.82a.6.6,0,0,1,0,.54A1.56,1.56,0,0,1,2.91,16.09Z"/><path class="cls-2" d="M61.28,53.72V54a2.91,2.91,0,0,1-.77-.23A2,2,0,0,1,61.28,53.72Z"/><path class="cls-2" d="M47.32,18.12a2.86,2.86,0,0,1-2.6.88C45.56,18.61,46.38,17.95,47.32,18.12Z"/><path class="cls-2" d="M52.44,51.57a84.94,84.94,0,0,1-12.71-1.35c-8.29-1.31-16.76-2.55-25-.42a81.4,81.4,0,0,0-8.39,2.86C4.23,53.44,2.13,54.23,0,54.9v-.32c3.25-1,6.41-2.32,9.62-3.48a52.61,52.61,0,0,1,6-1.85,38.07,38.07,0,0,1,6-.86c8.49-.55,16.78,1.58,25.16,2.5a32.77,32.77,0,0,0,9.1.08c1.81-.32,3.58-.84,5.38-1.23v.31c-1,.22-2,.48-3,.72A23.8,23.8,0,0,1,52.44,51.57Z"/><path class="cls-2" d="M51.51,46.81a55.31,55.31,0,0,1-12.28-2.51c-4.08-1.23-8.08-2.7-12.16-3.9a42.12,42.12,0,0,0-12.59-2.07,19.35,19.35,0,0,0-4.95.7,41.35,41.35,0,0,0-4.47,1.63A49.78,49.78,0,0,1,0,42.53v-.31c2.26-.66,4.44-1.67,6.62-2.52A23.44,23.44,0,0,1,11.9,38.2a26.19,26.19,0,0,1,6.1,0,59.4,59.4,0,0,1,12.31,2.91c4.06,1.31,8.08,2.74,12.2,3.83a45.55,45.55,0,0,0,10.61,1.66,28.48,28.48,0,0,0,8.16-1v.32A30,30,0,0,1,51.51,46.81Z"/><path class="cls-2" d="M32.1,37.14a32.16,32.16,0,0,1-5.67-1.61c-1.9-.68-3.78-1.41-5.69-2.06A27.57,27.57,0,0,0,8.8,31.77,19.25,19.25,0,0,0,0,35.47v-.38c.72-.5,1.47-1,2.23-1.41a18.18,18.18,0,0,1,5-2,19.66,19.66,0,0,1,5.92-.31c4,.33,7.73,1.74,11.43,3.1a57.92,57.92,0,0,0,5.73,1.92,23.88,23.88,0,0,0,5.69.71,35,35,0,0,0,11.48-2,61.61,61.61,0,0,0,10.83-5q1.52-.87,3-1.8v.37a59,59,0,0,1-17.94,7.93A29.41,29.41,0,0,1,32.1,37.14Z"/><path class="cls-2" d="M50.2,30.3a43.87,43.87,0,0,1-5.74,2,29,29,0,0,1-12.17.87,29.08,29.08,0,0,1-6.06-1.85c-2-.79-3.92-1.68-5.86-2.58s-4-1.84-6-2.66a26.85,26.85,0,0,0-6.16-1.85A18.8,18.8,0,0,0,0,25v-.34q.78-.23,1.57-.42a18.39,18.39,0,0,1,5.72-.43,22.4,22.4,0,0,1,6.09,1.54c2,.76,3.92,1.63,5.85,2.52s4,1.85,6,2.7a36.09,36.09,0,0,0,6.05,2.08,27.25,27.25,0,0,0,12.5-.51,45.55,45.55,0,0,0,11.42-4.72c2-1.16,4-2.38,6.1-3.5v.35c-1.9,1-3.75,2.16-5.62,3.24A52.26,52.26,0,0,1,50.2,30.3Z"/><path class="cls-2" d="M50.09,24.44a20.6,20.6,0,0,1-3.63,1.82,15.56,15.56,0,0,1-4.91.77,31.8,31.8,0,0,1-11-2.11c-3.69-1.27-7.29-2.85-11.07-3.84a31.14,31.14,0,0,0-12.22-.75A32.46,32.46,0,0,0,0,22.26v-.33a32.19,32.19,0,0,1,10.9-2.2,34.65,34.65,0,0,1,11.93,2.07C30,24.26,37.31,28,45.1,26.34a13.29,13.29,0,0,0,3.65-1.47c1.29-.71,2.53-1.53,3.76-2.34a31.25,31.25,0,0,1,7.67-4.18,9.84,9.84,0,0,1,1.11-.28v.33a13.91,13.91,0,0,0-3.55,1.29C55.05,21,52.65,22.88,50.09,24.44Z"/><path class="cls-2" d="M42.14,53.33a56.59,56.59,0,0,0-11.87.83,54.35,54.35,0,0,0-10.64,3.26c-2.77,1.15-5.46,2.46-8.1,3.87h-.64a89,89,0,0,1,10.94-5.06,49.75,49.75,0,0,1,10.74-2.75,62.44,62.44,0,0,1,12-.35,55,55,0,0,1,11,1.73c1.91.51,3.81,1.08,5.71,1.63v.3c-2.28-.67-4.56-1.36-6.87-1.91A58.89,58.89,0,0,0,42.14,53.33Z"/><path class="cls-2" d="M47.58,55.93c-1.89-.16-3.79-.29-5.68-.32a39.78,39.78,0,0,0-5.67.27,39.35,39.35,0,0,0-5.5,1.19,69.68,69.68,0,0,0-10.44,3.81l-.85.4h-.71q3.06-1.47,6.24-2.67,2.59-1,5.25-1.72a43.46,43.46,0,0,1,5.42-1.24,49.47,49.47,0,0,1,11.28-.08,51,51,0,0,1,5.3.63,30.31,30.31,0,0,1,5.11,1.43,25.61,25.61,0,0,1,4,1.9v.36A27.69,27.69,0,0,0,53,56.67,42.89,42.89,0,0,0,47.58,55.93Z"/><path class="cls-2" d="M43.25,57.73a26.16,26.16,0,0,1,8.75.94,22.53,22.53,0,0,1,5.77,2.61h-.59a22.7,22.7,0,0,0-6.47-2.64,27.48,27.48,0,0,0-10.26-.32,44.37,44.37,0,0,0-8.92,2.37q-.75.28-1.49.58h-.78q1.72-.74,3.5-1.35A39.56,39.56,0,0,1,43.25,57.73Z"/><path class="cls-2" d="M49.61,60.6a15.27,15.27,0,0,1,1.82.69h-.79c-4.91-1.94-10.47-1.35-15.57,0H33.93A41.85,41.85,0,0,1,39.8,60,23,23,0,0,1,49.61,60.6Z"/><path class="cls-2" d="M54,11.25c-2.11,0-4.24,0-6.34.13s-4.45.45-6.65.8a84.47,84.47,0,0,1-13,1.5,32,32,0,0,1-11.75-2.28,34.39,34.39,0,0,1-5.11-2.53c-1.68-1-3.27-2.18-4.88-3.31C4.27,4.1,2.19,2.65,0,1.39V1C2.31,2.36,4.51,3.9,6.69,5.44,8.35,6.62,10,7.83,11.78,8.86a33.79,33.79,0,0,0,5.52,2.6,32,32,0,0,0,12.08,1.9c4.42-.15,8.77-1.07,13.14-1.71A59.77,59.77,0,0,1,48.75,11c2-.08,4-.07,6-.09a47.67,47.67,0,0,1,6.5.27v.31A51.06,51.06,0,0,0,54,11.25Z"/><path class="cls-2" d="M43.83,7.64c-2.07.49-4.14,1-6.23,1.37a36,36,0,0,1-6.43.53,48.3,48.3,0,0,1-12.71-2C16.7,7.05,15,6.49,13.25,5.87A33.24,33.24,0,0,1,8.62,3.93,49.88,49.88,0,0,1,2.91,0h.52A35.86,35.86,0,0,0,10.3,4.41a61.68,61.68,0,0,0,6.11,2.21c2.07.65,4.17,1.22,6.3,1.66a40.44,40.44,0,0,0,13,.69c4.28-.5,8.44-1.82,12.66-2.68a31.44,31.44,0,0,1,10.32-.67c.87.11,1.73.27,2.58.46V6.4a26.2,26.2,0,0,0-4.85-.67C52.18,5.57,47.94,6.66,43.83,7.64Z"/><path class="cls-2" d="M55.41,4c-1.87.06-3.73.12-5.6.31s-3.87.51-5.79.87c-3.72.71-7.36,1.85-11.16,2A31.77,31.77,0,0,1,22.11,5.76a40.54,40.54,0,0,1-6-2.39A25.19,25.19,0,0,1,10.76,0l0,0h.46a24.12,24.12,0,0,0,4.37,2.75A41.15,41.15,0,0,0,20.73,5,32.7,32.7,0,0,0,31.54,6.92a27.86,27.86,0,0,0,5.59-.56C39,6,40.91,5.48,42.81,5.09A66.76,66.76,0,0,1,54.16,3.71a58.33,58.33,0,0,1,7.12,0V4A46.16,46.16,0,0,0,55.41,4Z"/><path class="cls-2" d="M44.32.16A21,21,0,0,1,26.78,1.58,16.46,16.46,0,0,1,23.72,0h.57c4.77,2.92,10.89,3.21,16.16,1.51A20.25,20.25,0,0,0,44,0h.42A.14.14,0,0,1,44.32.16Z"/><path class="cls-2" d="M54.57,20a12.19,12.19,0,0,0,3.28-2.69,3.84,3.84,0,0,0,1-1.77,1.35,1.35,0,0,0-.2-.89c-.12-.19-.26-.44-.48-.48a6.12,6.12,0,0,0-4.12-1.5,24.46,24.46,0,0,0-5.36.43c-1.11.19-2.21.44-3.32.61l-6,.89c-.81.12-1.64.21-2.45.34a5.86,5.86,0,0,0-1.55.43A2.52,2.52,0,0,0,34,17.6a7.35,7.35,0,0,0,.7,3.63,5,5,0,0,0,2.23,2.12,10.45,10.45,0,0,0,4.52,1.19A9.56,9.56,0,0,0,44,24.21c.78-.21,1.53-.53,2.29-.81A50.82,50.82,0,0,0,54.57,20Zm-.31-.18a58.41,58.41,0,0,1-8.35,3.45,16.17,16.17,0,0,1-2.39.79,9,9,0,0,1-2.77.17,9.83,9.83,0,0,1-4.3-1.46,4.44,4.44,0,0,1-1.88-2.56,8.77,8.77,0,0,1-.32-2,3.13,3.13,0,0,1,.3-1.69,3.45,3.45,0,0,1,2.69-1.3l5.59-.81c1.46-.21,2.91-.44,4.36-.71,1.28-.24,2.56-.47,3.86-.6a15.57,15.57,0,0,1,4,0,5.08,5.08,0,0,1,3,1.35h0l0,0a.13.13,0,0,0,.09,0c.1,0,.22.23.28.33a1.12,1.12,0,0,1,.17.47,1.46,1.46,0,0,1-.22.82,8.09,8.09,0,0,1-1.18,1.5A12.89,12.89,0,0,1,54.26,19.78Z"/><path class="cls-2" d="M42.6,22.68A9.43,9.43,0,0,0,47.24,22a14.33,14.33,0,0,0,2-1.26,22.1,22.1,0,0,1,2-1.22c.72-.4,1.54-.66,2.29-1,1.16-.52,3.93-1.79,2.62-3.42A.16.16,0,0,0,56,15a12.66,12.66,0,0,0-4.77-.86,24.49,24.49,0,0,0-4.52.56c-1.59.32-3.17.7-4.77.94-1,.16-2.1,0-3.13.21a2.67,2.67,0,0,0-2.33,2.32,3.87,3.87,0,0,0,1.9,3.27A7.89,7.89,0,0,0,42.6,22.68Zm.2-.29A7.58,7.58,0,0,1,38.41,21c-1.1-.88-2.11-2.34-1.28-3.75.69-1.18,2.1-1.24,3.32-1.27a13.13,13.13,0,0,0,1.84-.13c.91-.15,1.82-.33,2.73-.53a36.43,36.43,0,0,1,5.4-.9,13,13,0,0,1,5.44.78.17.17,0,0,0,0,.09c.87,1-.52,1.94-1.34,2.39-1.07.59-2.22,1-3.31,1.5-1.3.64-2.4,1.6-3.66,2.3A8.73,8.73,0,0,1,42.8,22.39Z"/><path class="cls-2" d="M43.55,21.11a8.15,8.15,0,0,0,1.66.17,4.69,4.69,0,0,0,2-.51c1.12-.57,2.06-1.46,3.2-2,.76-.36,1.55-.67,2.3-1a5.32,5.32,0,0,0,2-1.33c.44-.59-.12-1-.67-1.21-1.28-.43-2.55.15-3.8.43a.15.15,0,0,0-.13,0c-.24,0-.48.08-.72.1-1.94.21-3.89.31-5.83.61a14.3,14.3,0,0,0-2.8.65A2.31,2.31,0,0,0,39.27,18c-.31.78.45,1.54,1,1.92A9,9,0,0,0,43.55,21.11ZM45.11,21a9.11,9.11,0,0,1-1.67-.2,7.58,7.58,0,0,1-3.25-1.31c-.53-.43-1-1.17-.35-1.71A5.06,5.06,0,0,1,42,16.9a27.84,27.84,0,0,1,3.14-.5c1-.11,2-.2,3.05-.29.55,0,1.12-.08,1.67-.17A.15.15,0,0,0,50,16c1.23-.22,2.58-.94,3.84-.53.21.07.64.19.71.44s-.13.39-.26.51a7.53,7.53,0,0,1-2,1.16c-.66.31-1.34.59-2,.89-1.1.51-2,1.35-3.07,1.93A4.42,4.42,0,0,1,45.11,21Z"/><path class="cls-2" d="M42.8,20.26a5.43,5.43,0,0,0,1.76.35c1.59,0,2.68-1.07,4-1.79.65-.36,1.33-.66,2-1a6.52,6.52,0,0,0,1.62-1,.15.15,0,0,0,0-.24,5.72,5.72,0,0,0-3.8,0,34.07,34.07,0,0,1-3.95,1.07.12.12,0,0,0-.11.09.16.16,0,0,0-.17-.09l-.76.11a2.56,2.56,0,0,0-1.59.56.9.9,0,0,0-.19,1.15A2.53,2.53,0,0,0,42.8,20.26Zm2,0A5,5,0,0,1,43,20a2.08,2.08,0,0,1-1.24-.82c-.24-.51.38-.91.79-1s1.08-.17,1.62-.26a.12.12,0,0,0,.11-.09.16.16,0,0,0,.17.09,29.71,29.71,0,0,0,3.68-1,6.1,6.1,0,0,1,3.62-.2,7.14,7.14,0,0,1-1.39.84c-.62.31-1.25.59-1.85.92C47.33,19.13,46.21,20.29,44.75,20.3Z"/><path class="cls-2" d="M44.35,19.19c1.29.56,2.45-.19,3.4-1a.15.15,0,0,0-.07-.26c-1.24-.44-2.21.51-3.3.92a.16.16,0,0,0-.1.19A.13.13,0,0,0,44.35,19.19Zm.37-.19c.84-.39,1.66-1.05,2.6-.88A2.86,2.86,0,0,1,44.72,19Z"/><path class="cls-2" d="M53.87,44.5c-1.69-.12-3.37-.37-5-.62-1.92-.28-3.82-.66-5.71-1.1-.81-.19-1.62-.42-2.43-.6s-1.45-.3-2.18-.47a11.44,11.44,0,0,1-2-.63,5.18,5.18,0,0,1-.86-.5,2,2,0,0,1-.72-.68.16.16,0,0,1,.06-.21,8.23,8.23,0,0,1,4-1.06c.74-.06,1.48-.1,2.22-.17A11.77,11.77,0,0,0,43.55,38a38.25,38.25,0,0,0,5.16-2.28c1.55-.76,3.06-1.58,4.6-2.35A27.23,27.23,0,0,1,59.12,31a14.1,14.1,0,0,1,2.16-.35V31a14.58,14.58,0,0,0-1.48.21,21.86,21.86,0,0,0-4.92,1.69c-3.22,1.48-6.28,3.32-9.55,4.71a17.91,17.91,0,0,1-2.87,1,14.91,14.91,0,0,1-2.38.29c-1.59.12-3.42.13-4.82,1a3,3,0,0,0,.75.6,4.25,4.25,0,0,0,.9.46,14,14,0,0,0,2.12.59c.71.16,1.42.29,2.13.46.87.21,1.73.44,2.6.64,1.88.43,3.78.76,5.69,1.05a50.89,50.89,0,0,0,5.15.57,20.89,20.89,0,0,0,6.69-.61v.31A22.29,22.29,0,0,1,53.87,44.5Z"/><path class="cls-2" d="M54.66,43a72.26,72.26,0,0,1-10-1.05,47.87,47.87,0,0,1-6.74-1.6.16.16,0,0,1,0-.28,9.63,9.63,0,0,1,4.47-.47,10.09,10.09,0,0,0,2.4-.16,8.14,8.14,0,0,0,2.29-.92c1.42-.82,2.63-1.95,4-2.86a25,25,0,0,1,3.64-2,14.45,14.45,0,0,1,6.58-1.55v.3a13.86,13.86,0,0,0-6.18,1.4,26.94,26.94,0,0,0-3.71,2c-1.36.86-2.55,2-3.92,2.82a8.69,8.69,0,0,1-2.18,1,8.39,8.39,0,0,1-2.33.3c-1.47,0-3.11-.26-4.53.27a56.31,56.31,0,0,0,10.15,2,41.86,41.86,0,0,0,9.64.36,13.17,13.17,0,0,0,3.06-.71v.33A18.27,18.27,0,0,1,54.66,43Z"/><path class="cls-2" d="M50,41.1A19.94,19.94,0,0,0,47.53,41,11.14,11.14,0,0,1,45,40.8a.15.15,0,0,1,0-.3,10.4,10.4,0,0,0,4.3-1.92c1.32-.95,2.52-2.06,3.91-2.91a12.9,12.9,0,0,1,8-1.45v.3a18.63,18.63,0,0,0-3.22-.06,10.69,10.69,0,0,0-4.67,1.47c-1.4.83-2.6,2-3.91,2.91a11,11,0,0,1-3.57,1.78c.54,0,1.08,0,1.62,0A20.25,20.25,0,0,1,50,40.8a36.23,36.23,0,0,0,5,.45A20.53,20.53,0,0,0,61.28,40v.32A21.36,21.36,0,0,1,55,41.56,33.73,33.73,0,0,1,50,41.1Z"/><path class="cls-2" d="M51.15,39.68a.15.15,0,0,1-.07-.17,3.79,3.79,0,0,1,1.7-2A14.14,14.14,0,0,1,55.62,36a14.33,14.33,0,0,1,3.48-.91A11.79,11.79,0,0,1,61.28,35v.31a12.46,12.46,0,0,0-2.09.06,13.63,13.63,0,0,0-3.37.86,14.76,14.76,0,0,0-2.69,1.37,3.91,3.91,0,0,0-1.72,1.85,11.73,11.73,0,0,0,5.74.78,11.49,11.49,0,0,0,4.14-1.19v.34a12.12,12.12,0,0,1-4,1.15A11.9,11.9,0,0,1,51.15,39.68Z"/><path class="cls-2" d="M60.81,37.87l.47-.23v.06c-.23.1-.46.2-.7.28Z"/><path class="cls-2" d="M58,37a9.06,9.06,0,0,0-2.53.94c-.41.25-.84.75-.27,1.11a2.37,2.37,0,0,0,1.52.13,11.62,11.62,0,0,0,2.13-.54l.49-.17a3.85,3.85,0,0,0,.67,0,5.55,5.55,0,0,0,.89-.27l-.68.29a15.06,15.06,0,0,1-3.11,1,2.69,2.69,0,0,1-2.22-.24A.82.82,0,0,1,55,37.94a5.2,5.2,0,0,1,1.7-.84,19.17,19.17,0,0,1,2.51-.64c.69-.14,1.39-.24,2.09-.32v.3l-.25,0A24.58,24.58,0,0,0,58,37Z"/><path class="cls-2" d="M55.14,53a8.73,8.73,0,0,0,2.79,1.38,27,27,0,0,0,3.17.86c.19,0,.11.34-.08.29a26.85,26.85,0,0,1-3.34-.91,8.29,8.29,0,0,1-2.89-1.51.15.15,0,0,1,0-.22A9.08,9.08,0,0,1,61.28,51v.3A8.81,8.81,0,0,0,55.14,53Z"/><path class="cls-2" d="M58.2,52.51c.41-.56,1.38-.39,2-.29a11.15,11.15,0,0,1,1.13.26v.32a9.17,9.17,0,0,0-1.6-.34c-.37,0-1.7,0-1.25.7a2.58,2.58,0,0,0,1.19.78,13.41,13.41,0,0,0,1.64.57h0v.32a13.52,13.52,0,0,1-2.06-.75C58.68,53.84,57.66,53.24,58.2,52.51Z"/><path class="cls-2" d="M60.07,53.58a2.18,2.18,0,0,1,1.22-.16v.31a2,2,0,0,0-.77,0,2.91,2.91,0,0,0,.77.23v.31a3.09,3.09,0,0,1-1.22-.43A.15.15,0,0,1,60.07,53.58Z"/><path class="cls-2" d="M10.2,52.94c1.84-.55,3.72-1,5.59-1.41s3.5-.71,5.27-1A18.39,18.39,0,0,1,25,50.25a3.54,3.54,0,0,1,3,1.36c.5.85-.51,1.48-1.16,1.78a25.11,25.11,0,0,1-3.49,1.18c-1.84.55-3.69,1.08-5.49,1.78-.91.35-1.8.75-2.7,1.12l-2.67,1.08a38.89,38.89,0,0,0-5.16,2.61l-.21.13H6.53l1.4-.85A39.27,39.27,0,0,1,13,58c1.79-.73,3.57-1.51,5.38-2.18s3.66-1.18,5.5-1.73A15.05,15.05,0,0,0,27.1,52.9c.31-.18.76-.49.7-.91s-.72-.93-1.17-1.12a8.36,8.36,0,0,0-4-.25c-1.52.15-3,.41-4.54.7-1.89.37-3.75.86-5.63,1.3a48.25,48.25,0,0,0-5.4,1.65c-2.4.87-4.75,1.86-7.1,2.87v-.31c1.65-.7,3.29-1.41,5-2.07S8.42,53.47,10.2,52.94Z"/><path class="cls-2" d="M8.16,57.24a.15.15,0,0,1,.11.19,4.17,4.17,0,0,1-1.15,1.49A14.51,14.51,0,0,1,5,60.43q-.72.45-1.47.86H2.9c.6-.31,1.19-.65,1.77-1a15.77,15.77,0,0,0,2.07-1.46A4.43,4.43,0,0,0,7.9,57.49c-1.76-.36-3.62.38-5.19,1.12-.93.44-1.82.94-2.71,1.45v-.35c.89-.51,1.79-1,2.72-1.44C4.37,57.5,6.32,56.78,8.16,57.24Z"/><path class="cls-2" d="M11.89,40.26a25.15,25.15,0,0,1,5.76-.5,32.4,32.4,0,0,1,8.74,1.52,17.43,17.43,0,0,1,4,1.85A7.18,7.18,0,0,1,33,45.7a1.05,1.05,0,0,1-.89,1.69,11.58,11.58,0,0,1-2.49,0c-1,0-1.95-.07-2.92-.07-1.91,0-3.82.17-5.72.32s-3.92.35-5.87.63a42.55,42.55,0,0,0-4.71.89A27.2,27.2,0,0,0,6,50.73c-2.05.93-4,2-6,3v-.34c2.39-1.19,4.71-2.5,7.18-3.52a39.07,39.07,0,0,1,10.87-2.33,78.94,78.94,0,0,1,11.55-.52,10.67,10.67,0,0,0,2.54,0c.42-.09.76-.31.72-.77A2.62,2.62,0,0,0,32.11,45a8.74,8.74,0,0,0-1.54-1.35,20.81,20.81,0,0,0-8.5-3.1,34.05,34.05,0,0,0-4.31-.46,25.49,25.49,0,0,0-5.91.5c-2.66.5-5.31,1.15-7.91,1.9A38.61,38.61,0,0,0,0,43.85v-.32a49.1,49.1,0,0,1,6.3-2C8.15,41.05,10,40.61,11.89,40.26Z"/><path class="cls-2" d="M13.08,41.51a46.06,46.06,0,0,1,5.69.35,36.07,36.07,0,0,1,5,1.08,14.69,14.69,0,0,1,2.53,1c.38.19,1.47.72,1.07,1.31a1.77,1.77,0,0,1-1.12.5,8.24,8.24,0,0,1-2.35,0,19.54,19.54,0,0,0-2.48-.16c-.66,0-1.33.12-2,.19q-2.1.22-4.2.57a49.63,49.63,0,0,0-8.65,2.18A25.42,25.42,0,0,0,0,51.89v-.37a24,24,0,0,1,4.35-2.45,41.93,41.93,0,0,1,8.48-2.61,70.78,70.78,0,0,1,8.24-1.17c1.64-.14,3.26.35,4.89.17.27,0,1.11-.12,1.2-.47s-.44-.5-.58-.58A11.31,11.31,0,0,0,24,43.33a32.38,32.38,0,0,0-4.58-1.06,41.9,41.9,0,0,0-5.74-.43,27.72,27.72,0,0,0-5.41.4A33.6,33.6,0,0,0,0,44.92v-.34A34.53,34.53,0,0,1,7.86,42,26.33,26.33,0,0,1,13.08,41.51Z"/><path class="cls-2" d="M4.57,43.8a50,50,0,0,1,6.61-1.08,11,11,0,0,1,3.49,0c.53.12,1.69.62,1.28,1.36a1.58,1.58,0,0,1-.83.56,8.55,8.55,0,0,1-1.44.39c-.94.2-1.88.32-2.81.59A46.71,46.71,0,0,0,4.34,48,23,23,0,0,0,0,50.49v-.39a27.37,27.37,0,0,1,6.39-3.3c1.47-.56,3-1,4.48-1.47.91-.26,1.85-.38,2.78-.57a8.57,8.57,0,0,0,1.42-.4c.2-.08.68-.27.64-.56s-.58-.59-.9-.69a5.91,5.91,0,0,0-1.7-.2,20,20,0,0,0-3.19.28c-1.11.17-2.23.29-3.34.49A24.89,24.89,0,0,0,2.05,44.9a10.44,10.44,0,0,0-2.05,1v-.35c.29-.18.59-.34.88-.5A18,18,0,0,1,4.57,43.8Z"/><path class="cls-2" d="M57,49.44c-.95.15-1.91.24-2.86.32a28.34,28.34,0,0,1-5.94-.08c-1.79-.22-3.57-.48-5.33-.8-1.34-.25-2.68-.53-4-.87q-.93-.24-1.85-.52c-.29-.09-.57-.21-.86-.29a5.72,5.72,0,0,1-.87-.25c-.13-.06-.08-.24,0-.28a11.91,11.91,0,0,1,5.49-.16c2,.3,3.9.64,5.86.92A45.79,45.79,0,0,0,52.7,48a47,47,0,0,0,5.75-.42c.94-.11,1.89-.22,2.84-.3v.31c-2.82.25-5.63.72-8.46.72a43.36,43.36,0,0,1-5.91-.52c-2-.27-3.92-.6-5.89-.92a12.92,12.92,0,0,0-5.18,0,3.4,3.4,0,0,1,.66.19,9.61,9.61,0,0,0,1.36.42c.87.25,1.75.47,2.64.67,1.8.41,3.63.72,5.46,1a36.8,36.8,0,0,0,5.75.5c1.9,0,3.77-.29,5.66-.5a13.14,13.14,0,0,0,3.91-.59v.32a8.06,8.06,0,0,1-2.28.44C58.33,49.32,57.64,49.34,57,49.44Z"/><path class="cls-2" d="M55.74,25A72.91,72.91,0,0,1,44.41,30.6a21.5,21.5,0,0,1-11.93.78c-4-.93-7.7-3-11.31-4.9-1.85-1-3.7-2-5.62-2.85a14.32,14.32,0,0,0-6.34-1.45C7,22.3,5,23.15,2.85,23.57A26.65,26.65,0,0,0,0,24.33V24c.63-.2,1.26-.38,1.89-.54C2.93,23.21,4,23,5,22.72A29,29,0,0,1,8.15,22c4.16-.65,8.17,1.56,11.71,3.45s7.34,4.1,11.37,5.3a20.49,20.49,0,0,0,6.28.87,22.14,22.14,0,0,0,6-1c4.08-1.25,7.77-3.42,11.47-5.5,1.83-1,3.69-2,5.61-2.83l.68-.3v.33h0C59.37,23.12,57.54,24,55.74,25Z"/><path class="cls-2" d="M10.94,12a22.22,22.22,0,0,0,5.27,1.64c1,.19,1.93.35,2.89.49s2,.32,2.94.38c1.89.13,3.8,0,5.68.27a8.15,8.15,0,0,1,3.48,1.31,3.49,3.49,0,0,1,1.71,2.71,2.87,2.87,0,0,1-.5,1.68,2.21,2.21,0,0,1-1.21.78,7.12,7.12,0,0,1-3.47-.13c-3.35-.75-6.56-2-9.88-2.88a24.8,24.8,0,0,0-5.3-.86,19.37,19.37,0,0,0-4.7.44,26.15,26.15,0,0,0-7.85,3v-.35A26.8,26.8,0,0,1,7.87,17.5a19.84,19.84,0,0,1,4.8-.42A25.43,25.43,0,0,1,18,18c3.3.87,6.5,2.12,9.84,2.86a6,6,0,0,0,3.56,0,2.3,2.3,0,0,0,.91-3.08,5.08,5.08,0,0,0-2.84-2.22,13.79,13.79,0,0,0-4.82-.65c-1,0-1.93,0-2.89-.1s-1.86-.24-2.79-.38a44.92,44.92,0,0,1-5.74-1.18A26.2,26.2,0,0,1,5.47,9C3.6,7.64,1.82,6.18,0,4.76V4.38c2.18,1.68,4.29,3.45,6.55,5A31.24,31.24,0,0,0,10.94,12Z"/><path class="cls-2" d="M17.67,15c1.74.22,3.49.47,5.23.73.89.13,1.77.29,2.65.51a9.48,9.48,0,0,1,2.43.89c.33.19.83.55.74,1s-.5.56-.84.65a3.79,3.79,0,0,1-1.78,0c-.88-.2-1.75-.49-2.62-.76-3.46-1.07-6.92-2.29-10.59-2.2a25.39,25.39,0,0,0-10,2.28A20.23,20.23,0,0,0,0,19.7v-.37A22.75,22.75,0,0,1,8.2,16a27.1,27.1,0,0,1,5.13-.55,21.35,21.35,0,0,1,5.27.73c1.74.44,3.45,1,5.16,1.55.85.26,1.7.55,2.57.73a2.91,2.91,0,0,0,1.78-.12c.56-.27.13-.69-.23-.92a8.5,8.5,0,0,0-2.53-.93c-1.72-.43-3.48-.59-5.23-.86-3.57-.55-7.19-.8-10.7-1.68a24.24,24.24,0,0,1-5-1.83A41,41,0,0,1,0,9.53V9.18a31.65,31.65,0,0,0,7,3.76A50.16,50.16,0,0,0,17.67,15Z"/><path class="cls-2" d="M4.58,13.77c.43.24.94.58,1,1.11s-.57.94-1,1.16a13.72,13.72,0,0,1-2.1.89A9.62,9.62,0,0,0,0,18.25v-.39A8,8,0,0,1,1.59,17c.59-.25,1.19-.47,1.78-.7a3.61,3.61,0,0,0,1.84-1.13c.3-.49-.45-.92-.78-1.11-.64-.37-1.33-.66-2-1A18.94,18.94,0,0,0,0,12V11.7a18.93,18.93,0,0,1,2.5,1C3.19,13.07,3.91,13.39,4.58,13.77Z"/><path class="cls-2" d="M3.3,15c.3.58-.47,1.13-.89,1.36-.76.43-1.67.54-2.41,1V17a11.47,11.47,0,0,1,1.6-.61,3.24,3.24,0,0,0,1.22-.71c.14-.14.3-.35.2-.55-.22-.43-1-.58-1.42-.7S.52,14.19,0,14V13.7c.61.2,1.24.31,1.85.5S3,14.53,3.3,15Z"/><rect class="cls-3" x="11.76" y="13.06" width="37.65" height="37.64"/><polygon class="cls-4" points="38.54 25.36 24.06 39.84 38.54 39.84 38.54 25.36"/><polygon class="cls-4" points="14.12 48.34 21.54 40.92 21.54 22.84 39.63 22.84 47.04 15.42 14.12 15.42 14.12 48.34"/><polygon class="cls-4" points="47.04 16.85 39.63 24.27 39.63 40.92 22.98 40.92 15.55 48.34 47.04 48.34 47.04 16.85"/><path class="cls-1" d="M110.36,61.6V46.05h-4V43h11.45v3.07h-4V61.6Z"/><path class="cls-1" d="M119.65,61.6V43h3.45v7.3h4.75V43h3.45V61.6h-3.45V53.16h-4.75V61.6Z"/><path class="cls-1" d="M134.46,61.6V43h3.47V61.6Z"/><path class="cls-1" d="M141.09,61.6V43h9.56v3.09h-6.12v4.3h5.69v3h-5.69v5.13h6.26V61.6Z"/><path class="cls-1" d="M153.35,61.6V43h3.57l4.85,13-.1-13h3.28V61.6h-3.54l-4.88-13,.1,13Z"/><path class="cls-1" d="M172.94,61.6,177.13,43h4.65L186,61.6h-3.74l-.92-4.68h-4l-.9,4.68Zm5-7.47h2.95l-1.49-7.81Z"/><path class="cls-1" d="M187.85,61.6V43h3.57l4.85,13-.1-13h3.28V61.6H195.9l-4.89-13,.1,13Z"/><path class="cls-1" d="M87.56,44.4q1.63.55,1.63,1.91a4,4,0,0,1-1.46,2.89,9.71,9.71,0,0,1-5.13,2.34,3.84,3.84,0,0,1,3.07,1.91,4,4,0,0,1,.5,1.63q.23,2.82-2.59,5.15a11.18,11.18,0,0,1-4.25,2.14,12.68,12.68,0,0,1-2.82.4,10,10,0,0,1-3-.33,18.62,18.62,0,0,0-.93,2.19q-.23.65-.65.65t-.48-.45a3.41,3.41,0,0,1,.6-1.71l.58-1.08a3.66,3.66,0,0,1-2.06-3.59,4.09,4.09,0,0,1,2-3.42,4.39,4.39,0,0,1,2.09-.68,5.25,5.25,0,0,1,2.56.58q3.24-4.4,8-10A12.81,12.81,0,0,0,79,47.54a1.54,1.54,0,0,1-1.13.43.53.53,0,0,1-.45-.53,1.44,1.44,0,0,1,.6-1.23,3.5,3.5,0,0,1,1.21-.78A16.58,16.58,0,0,1,86,44.12q.75-.93,1.38-.93t.55.48A1.22,1.22,0,0,1,87.56,44.4ZM72.93,61.52a61.51,61.51,0,0,1,3.49-5.46,3.42,3.42,0,0,0-1.89-.68,2.93,2.93,0,0,0-2.22,1,3.53,3.53,0,0,0-1,2.26A2.81,2.81,0,0,0,72.93,61.52Zm4.07-5a43.18,43.18,0,0,0-3.22,5.36,6.19,6.19,0,0,0,1.81.35,8.31,8.31,0,0,0,5.63-1.66q3.14-2.34,3.34-5.1a3,3,0,0,0-1.81-3.17,4.76,4.76,0,0,0-2.21-.4q-1.61,2-2.64,3.37.91.6,1.06.73a1.52,1.52,0,0,1,.68,1q0,1-.83,1.08a.83.83,0,0,1-.75-.4A7.75,7.75,0,0,0,77,56.52Zm9.88-11.47q-3,2.92-5.76,6.14a9.25,9.25,0,0,0,3.67-.91,5.38,5.38,0,0,0,2.82-2.51A2.49,2.49,0,0,0,87.94,46,1.53,1.53,0,0,0,86.88,45.05Z"/><path class="cls-1" d="M86.05,63a.83.83,0,0,1-.68-.63,3.72,3.72,0,0,1,.83-2.41,10.46,10.46,0,0,1,1-1.26,15.67,15.67,0,0,0-1.61,1.58l-.15-.3q1-1.13,3.14-3.37a1.46,1.46,0,0,1,1.11-.48.62.62,0,0,1,.68.43q.1.43-1,1.68t-1.84,2.34q-1,1.31-.8,1.68t.63.08q1.06-.28,3.14-3.07,1-1.33,1-1.38a7.54,7.54,0,0,1,1.23-1.21,2.43,2.43,0,0,1,.91-.4l.33-.05q.45,0,.55.25c0,.08,0,.2-.1.35a30.58,30.58,0,0,1-2.92,3.62,29.48,29.48,0,0,0-2.84,3.7,25.2,25.2,0,0,0,5.23-4.17l.15.3a29.4,29.4,0,0,1-5.86,4.59q-1,1.68-2,3.39A36.47,36.47,0,0,1,84,71.46a15.09,15.09,0,0,1-4.75,4.07,9.07,9.07,0,0,1-4.07,1.2q-2,0-2-1.18t2.14-3.06a52.87,52.87,0,0,1,8.2-5.35l3-1.73q1-1.61,2.11-3.21A3.36,3.36,0,0,1,86.05,63Zm-4.15,9.28a27.62,27.62,0,0,0,2.94-4l1.28-2.11-3.82,2.26q-2.19,1.33-3.72,2.44a20.19,20.19,0,0,0-1.94,1.61q-1.76,1.68-1.76,2.74,0,.88,1.11.88a4.48,4.48,0,0,0,1.33-.25A11.83,11.83,0,0,0,81.91,72.23Z"/><path class="cls-4" d="M67.95,39.48V17.14H84.48v2.11H70.18V27H82.92v2.19H70.18V39.48Z"/><path class="cls-4" d="M88.12,39.48V17.14h2.24V37.38h14v2.1Z"/><path class="cls-4" d="M128,28.32q0,5.47-3.14,8.61t-8.61,3.14q-5.48,0-8.61-3.14t-3.13-8.61q0-5.48,3.13-8.63t8.61-3.14q5.47,0,8.61,3.14T128,28.32Zm-11.75,9.59a9.3,9.3,0,0,0,6.94-2.55,9.6,9.6,0,0,0,2.51-7,9.59,9.59,0,0,0-2.51-7,10.76,10.76,0,0,0-13.9,0,9.59,9.59,0,0,0-2.52,7,9.59,9.59,0,0,0,2.52,7A9.32,9.32,0,0,0,116.29,37.91Z"/><path class="cls-4" d="M154.62,28.32q0,5.47-3.14,8.61t-8.61,3.14q-5.48,0-8.61-3.14t-3.13-8.61q0-5.48,3.13-8.63t8.61-3.14q5.47,0,8.61,3.14T154.62,28.32Zm-11.75,9.59a9.3,9.3,0,0,0,6.94-2.55,9.6,9.6,0,0,0,2.51-7,9.59,9.59,0,0,0-2.51-7,10.76,10.76,0,0,0-13.9,0,9.59,9.59,0,0,0-2.52,7,9.59,9.59,0,0,0,2.52,7A9.32,9.32,0,0,0,142.86,37.91Z"/><path class="cls-4" d="M158.79,39.48V17.14H169.5q4,0,6,1.51a5.28,5.28,0,0,1,2,4.5,6.12,6.12,0,0,1-.93,3.56,5.55,5.55,0,0,1-2.94,2,3.9,3.9,0,0,1,2.44,1.13,6,6,0,0,1,1,3.11q.11.86.21,2.39.21,3.22.88,4.14h-2.6a14.79,14.79,0,0,1-.56-3.59q-.13-2.3-.21-2.94a3.23,3.23,0,0,0-1.2-2.36,5.57,5.57,0,0,0-3.17-.7H161v9.59ZM169,19.22H161v8.57h8.22a8.06,8.06,0,0,0,4.61-1,3.78,3.78,0,0,0,1.41-3.29,3.71,3.71,0,0,0-1.41-3.29Q172.45,19.22,169,19.22Z"/><path class="cls-4" d="M181.37,32.12h2.25v.12a5,5,0,0,0,1.93,4.09,8,8,0,0,0,5.15,1.54,9,9,0,0,0,5.06-1.25,3.84,3.84,0,0,0,1.87-3.35,2.86,2.86,0,0,0-1.08-2.42,11.75,11.75,0,0,0-4.49-1.44l-4.76-.83a6.9,6.9,0,0,1-4-1.84A5.21,5.21,0,0,1,182,23a5.63,5.63,0,0,1,2.3-4.71,10,10,0,0,1,6.21-1.76,10.06,10.06,0,0,1,6.37,1.82,6.35,6.35,0,0,1,2.42,5.05h-2.24a4.77,4.77,0,0,0-1.87-3.59,7.63,7.63,0,0,0-4.63-1.23A8,8,0,0,0,186,19.76a3.61,3.61,0,0,0-1.69,3.14,2.78,2.78,0,0,0,1.18,2.41,11.65,11.65,0,0,0,4.4,1.4l4.24.74a8.42,8.42,0,0,1,4.46,1.92A5.11,5.11,0,0,1,200,33.19a6,6,0,0,1-2.39,5.05,10.8,10.8,0,0,1-6.67,1.82,10.93,10.93,0,0,1-7-2,6.75,6.75,0,0,1-2.55-5.57Z"/><path class="cls-4" d="M111.89,37.45s6.67-2.3,9.42-8.26a20.07,20.07,0,0,1-7,6.57s-1.12-3.8.9-5.48,7.43-2.64,8.35-6.2c0,0,1.48,12.79-8.81,12.47a21.44,21.44,0,0,1-2.85,1.52A.34.34,0,0,1,111.89,37.45Z"/></g></g></svg>